<svg fill="none" xmlns="http://www.w3.org/2000/svg" viewBox="0 0 1200 600"><path d="M270.2 584.9l-23.3 3.7a775.6 775.6 0 01-66.3 9.2 90 90 0 01-21.3.8c-2.3-.2-4.4-.1-4.7.2-.3.4-.5.3-.3-.3.2-.7-2.1-.6-7 .4-4 .7-7.8 1.2-8.3 1-.6-.1-1.6-1.6-2.1-3.3-1.1-3.4-2-3.8-8.5-4-2.5 0-6.4-.5-8.8-1-2.3-.5-5-1-6-1-2.9-.1-3.2-2-1.2-6.5 2.2-4.7 4.2-6.9 8.6-9.5 3-1.7 6.3-6.7 6-8.7-.1-.7-3.2-1.3-7.5-1.4-1.1 0-4.7.2-8 .6a49 49 0 01-10 .2c-2.4-.3-7 .2-12 1.2-8.7 1.8-12.6 1.3-13.8-1.7-.4-1-2.3-2.3-5-3.3-2.3-.8-4.1-2-4-2.4 0-.4-.2-.5-.6-.2-2 1.4-5.5.2-7.2-2.5-2-3-2-6.2-.1-6.6.5-.1 1-.5.9-.9-.1-.3 1.8-1.2 4.2-1.8 2.5-.7 4.5-1.6 4.5-2.1s.6-1 1.3-1.2a2 2 0 001.5-1.2c0-.5.5-1 .9-1.1.3 0 .5.2.4.6 0 .4.7.6 1.8.4 1-.3 1.8-1 1.7-1.7-.2-.6.1-1 .5-.7.4.2.7 0 .6-.4-.2-1.4-2-1.6-5-.4-1.5.5-4.1.8-5.9.6l-4.2-.4a12 12 0 01-2.3-.5c-.7-.2-1.8 0-2.5.3-1.5 1-2.3-.1-1.3-1.8.4-.8.8-1 1-.6 0 .5.2.4.4-.2.5-1.7 2.9-4 3-3 .1.6.5.9.9.8.4 0 .5-.4.2-.8-.6-.9 4.7-2.1 6.2-1.5.8.4 1.4.2 1.8-.5.7-1.4 3.2-2.4 3-1.2-.4 1.4 1.6.5 2.2-1 .4-1.1 1-1.4 2.3-1 2.3.6 3 .5 1.6-.4-.9-.5-.6-.8 1.1-1 1.3-.3 4.5-1.4 7.1-2.5l6.5-2.6c2.9-.8 1.5-3.6-3-6.3-2.7-1.5-4-2.8-4-3.7.2-.8.5-1 1.1-.7.5.4 1.4.2 2-.3.7-.6 2.4-1.3 3.7-1.6 2-.4 2.6-1.2 3.2-3.2.9-3.2.8-5-.5-7-.5-.8-.7-1.4-.3-1.2.4.3.8-1.1 1-3 .1-2 .5-3.9.9-4.3.3-.5-.6-.6-2-.3-2 .4-2.5.2-1.9-.6.7-.8.3-1-1.3-.6a7 7 0 01-3.4-.1l-8-2.6c-7.4-2.2-11.5-2.2-25.8 0-11 1.6-12.3 1.6-14.2.8-2-1-11.4-.9-17.1 0-3 .5-5.8.4-8-.4-1.8-.7-4.8-1.2-6.7-1.1-3.7 0-8.7-1.2-8.9-2.3 0-.3 1.4-1.7 3.4-3.1 3-2.1 5.6-3 17.3-5.4a64 64 0 0016.1-4.7c2.2-1.6 4.6-2 11-1.5a58 58 0 0010-1.2c3.9-.7 7.7-1 8.5-.6.8.4 2.3.2 3.7-.5.9-.6 1.9-1 2.9-1.2a235 235 0 0023.4-5.2c3.6-1.5 8.3-3 14.7-4.8 3.4-1 6.4-2.2 6.7-2.9.5-1-.8-1.3-2.9-.4-.4.2-.9-.2-1-.7 0-.6-.5-.7-1-.4-.5.4-1.3.2-2-.4-.8-1-1-1-1.3 0-.3 1.1-.4 1.1-.6.2 0-.8-.6-1-1.3-.4-.8.5-1.4.3-1.9-.7-.4-.8-.4-1.7 0-2 .9-.6 2-3.3 2-4.3-.3-1.4-3.5-4-4.1-3.2-.3.3-.5 0-.4-.8.1-1-.2-1.2-1.3-.5-1 .6-1.3.5-1.2-.7.2-2.3-1.3-2.7-2-.6-.5 1.2-.7 1.4-.6.5.1-1.6-3.4-3.3-4.4-2.2-.3.4-.4.2-.2-.4.1-.6 0-1-.4-1s-.6.8-.5 1.5c.3 1.9-1 2-1.4 0-.3-1.3-.4-1.2-.5.4-.2 1-.1 2 0 2.3.2.3-.2.7-1 .9-1.4.4-1.7-.2-.5-1.9.6-1 0-1-2.8-.2-2.2.7-3.6.7-3.5.2.2-.5-.3-.6-1-.2-.7.4-1.3.3-1.4-.3-.1-.6-.5-.7-.8-.3-.5.6-.6.3-.5-1 .1-1 .2-2.3.1-3 0-2.1 1.5-3.1 3.8-2.3 1.2.4 1.8.9 1.4 1-1.6.5-.5 2 1.2 1.7 1.2-.3 1.5-.7 1.1-1.6-.3-.7-.4-1.6 0-2 .3-.4.1-1-.6-1.9-1-1-1-1.2 0-1 .7.3 1.5 0 2-.7.6-.8.5-1-.4-.3-.9.6-1 .3-1-1.8 0-1 0-2.1.4-3.1.8-1-.9-4.3-1.8-3.6-.7.5-1 .2-1-1s-.4-1.6-1.4-1.2c-.7.2-1 .2-.5-.2.4-.4.5-1 .2-1.4-.2-.3 0-1.3.6-2.2.7-.8.9-1.7.6-2-.3-.3 0-.6.7-.8 1-.2 1-.4.2-.9-.8-.4-1.3-.2-1.4.5-.2.6-.6 1-.9.7-.5-.5 0-4.5.8-5.5.6-.9.7-5.1 0-4.4-.2.3-.9 0-1.5-.9-1-1.3-.9-1.5.8-1.7 1.1-.1 1.6-.6 1.4-1.3-.2-.6-.1-1 .2-1 1.4 0 2-.8 1.8-2 0-.7.1-1.4.5-1.4.4-.1.5-.5.2-1-.3-.3-.2-1 .2-1.3.5-.4.3-.5-.4-.4-.7 0-1.2-.2-1.3-.6 0-.3-1.2-.4-2.4 0-1.3.3-2.2.2-2-.3 0-.4-.5-.7-1.2-.5-.8.1-1.3-.2-1.2-.7.2-.6 0-1-.5-.8-.4 0-.7-.5-.6-1.4.1-1.3 0-1.4-.7-.2-.6 1-.8 1-1 0-.1-.8.3-1.7 1-2.1.7-.5 1-1.5.9-2.7-.3-1.5-.6-1.7-2-1-1.5.8-1.6.7-.8-.3s.8-1.3-.9-3c-1-1.1-2.3-1.9-2.8-1.8-2 .4-.4-.9 2.2-1.8 1.6-.5 2.6-.5 2.5 0-.2.5 0 .8.4.8.4-.1.7-.5.9-1 0-.4 1.2-1 2.4-1 1.2-.2 2.4-.8 2.8-1.3.4-.6.8-.7 1.2-.2.4.6 1 .5 1.7-.3a6 6 0 012.6-1.4 49 49 0 0010.7-3.6c3-1.5 6.2-2.7 9.5-3.7 1.2-.3.3-4.5-1.1-5.4-.6-.5-1.4-2-1.8-3.3-.3-1.5-.8-2.2-1.3-1.8-.4.3-.7 0-.6-.7 0-.8-.6-1.3-2-1.4-2.2-.2-4.1-1.9-3.8-3.3.2-.5-.3-.6-1-.2-.9.5-1.3.3-1.5-.8-.1-.8-.9-1.6-1.7-1.7-1.5-.2-2-1.2-1-2.4.4-.5.6-.4.4.3-.2.6 0 1 .2 1 1.4-.7 2.2-.3 2.5 1 .3 1.8 1.8.7 1.7-1.3 0-.8-.3-1.4-.6-1.3-1.7.8-2.9.3-3.2-1.3-.2-1 0-1.7.4-1.4.4.2.6-.4.5-1.5-.2-1 0-1.9.5-2 .5 0 1-.8 1.1-1.6 0-.8 0-1.2-.4-.9-.2.4-.7.2-1-.4-.2-.6-.2-.4 0 .4.3.9.2 1.6-.1 1.7-.4 0-.7-.4-.8-1-.1-.5-.5-.1-.8 1-.5 1.3-.4 2 .2 2.3.5.3.3.6-.5.6-1.2.2-2.5-2-1.3-2.2.2 0 .4-1.4.3-2.9 0-2.2.3-2.8 1.6-3 1-.3 1.6-.8 1.5-1.3 0-.5.4-1 1.2-1.2 1.4-.3 2 1 1 2.1-1 1.3.3 2 2.4 1.4 2.6-1 3-2 .6-1.7-1.9.3-1.9.3-.4-.6l1.5-1-1.6-.8c-2-.9-2.5-2.4-1-2.7.6-.1 1 .2.8.8-.2.5 0 .9.4.8.4 0 .6-1 .4-2-.2-1 .1-1.8.8-2 1-.2 1-.3-.4-1.2-1.2-.8-1.5-.8-1.6.2-.1.8-.7 1.1-1.5.9-1.3-.3-1.3-.4-.5-2 .5-1 1.3-2 1.8-2 .8-.2 1-1.4.5-3.1-.1-.4.3-.8.8-.9.6-.1.8-.6.5-1-.7-1 .4-2.2 1.4-1.7.6.3.6.9.3 1.9-.4 1-.4 1.3.2 1.2.7-.1.8-1.3 0-4-.6-2.2.5-3.5 3.5-4.1 1.5-.3 2.4-1 2.2-1.5-.3-.6 1-1.2 3.6-1.8 2.1-.5 4.2-1.3 4.6-2 .4-.5 1.6-.9 2.7-.8 1.4 0 2.1-.4 2.6-1.6.3-1 .3-1.4 0-1-.2.5-1.5-.7-3-2.5-1.3-2-2.4-3-2.3-2.6 0 .4-.6.2-1.5-.6-.9-.7-1.7-1.7-1.8-2.3 0-.5.3-.3.8.5.6.7 1.5 1.3 2 1.2.9-.2 1-.5.2-1.1a3 3 0 01-.7-2.2c0-1.2.2-1.2.9-.4.5.8.6.6.4-.7-.4-2.2-2.5-4.7-3-3.7-.3.4-.3.2-.2-.5.2-.6.6-1 1-.8.4.2.6 0 .6-.5-.1-.5-.5-1-1-1.3-1-.5-.6-3.3.6-5 .6-.9.8-1.9.4-2.3-.3-.6 0-.8 1.1-.6 1.4.3 1.5.2.7-.6-1.3-1.3-1.9-4-1-4.6.6-.4.5-2-.4-5.5-.3-.9-1-1.4-1.8-1.2-.8.1-1.1-.1-.8-.6.9-1.1 1-4 .2-4.4-.3-.2-.7.2-.7.9 0 .6-.3 1-.6.7-.3-.2-.3-1-.1-1.7.3-1.2.6-1.2 2 0 1.6 1.3 1.7 1.3 1.4-.4-.1-1 0-1.2.3-.7.3.6.8 1 1.2 1 .4-.1.4-.8 0-1.4-.3-.7-.3-1.3 0-1.3a7 7 0 002.1-1.4c1-.7 2-1.2 2.4-1 .4.2.6 0 .5-.6-.1-.6.1-.8.5-.6.4.2.8 0 1-.6 0-.5.7-1 1.3-1.1 1.9-.4 2.9-1.1 5.5-3.9 1.4-1.4 2.9-2.6 3.4-2.8.5 0 1-.7 1-1.3 0-1.2 6-3 6.3-2 0 .4.9.3 1.8-.3 1.8-1.2 6-2 9.3-1.6 1.6 0 2-.3 2.4-2.2.3-1.3.3-2.7 0-3.2-.8-1-5.4-1-12.7.3-3.5.6-7 .7-8 .3-.9-.4-1.9-.7-2.1-.5l-3 .6c-1.8.3-2.5 0-3-1.3-.6-1.4-.4-1.8 1-2.1 1.7-.4 1.7-.5.3-1.5-1.3-.9-.9-1 4.6-2 3.3-.6 6.1-.9 6.2-.6 0 .3.8.3 1.8 0 4.3-1.7 11-3.9 13.5-4.5 1.5-.4 2.6-1 2.3-1.3-.2-.4 0-.8.7-1 2.6-.8 3.2-1.1 4.2-2 1-1.4 1.5-3 1.7-4.7.7-3.6 2.4-6 3.2-4.3.3.6.6.5 1.2-.4.5-.8 1-1 1.4-.5.6.8 11.2-1.4 11.7-2.5.2-.3.8-.3 1.3.1 1 .8 5-.2 6-1.5.3-.4 1.6-.6 3-.4 1.3.3 7.9-.5 14.6-1.7l21-3.4c16.4-2.4 32.8-5.3 49-8.8 12.5-2.7 17.4-3.5 17.5-2.8.2.8.4.7 1-.1.6-1.2 4.5-2.3 16-4.4 3.4-.7 6.6-1.3 7-1.5l7.7-2.5c3.9-1.3 7.6-2.3 8.2-2.2.7.1 1.3-.1 1.4-.6.1-.4 2.7-1.4 5.7-2.2 3-.7 7-2 9-3s7.4-2.7 12-3.8l12.9-3.5c2.5-.7 5.1-1 5.9-.7.8.3 1.2.3.9-.1-.3-.4 2.2-1.3 5.9-2 3.5-.7 7.3-2 8.5-2.8 1.6-1.2 2.2-1.3 2.8-.6.4.6.6.6.5-.1-.1-.6 1.6-1.4 4.5-2.2a676 676 0 0130.5-6.5c1.8-.3 6-1.3 9.1-2.3a113 113 0 0120-4.7c.2.7 3.3-.3 8.3-2.6 2.5-1.1 5.5-2 6.5-1.8 2.5.3 7-.4 6.8-1.1 0-.3.7-.7 1.7-1 18.2-3.7 36.2-8.4 53.9-14 .2-.2.5-.1.6.3 0 .5 1 .5 2 0 1-.4 2.5-.6 3.2-.4 1.6.5 4.3.3 3.8-.4 8.8-2.3 17.6-4 26.6-5.2 2.3-.4 4.1-1 4-1.3 0-.3 1-.5 2.4-.3 1.3 0 2.5-.1 2.6-.5 2-1 4-1.6 6.2-1.9 3.5-.7 5.9-1.6 5.8-2-.1-.6.1-.6.5-.1.8 1 5.8 0 6.2-1.4.2-.7.4-.7.5-.1.1.5 1.3.6 2.6.3a10 10 0 014.1-.2c1 .3 2.1 0 2.8-.7 1-1 3.7-2 17.7-6 3.6-1 9.4-2.9 13-4.1 3.5-1.2 11.6-3.3 17.9-4.7 6.3-1.4 12.6-3 14-3.8a167 167 0 0117.6-4.5c19.6-4.3 34.2-8.1 39.8-10.4l11.9-4.7c8.4-3.4 17-6.5 25.6-9.4 5.2-2 10.7-2.9 15.3-2.7 3 0 11.5-1.3 23.8-3.9 10.6-2.2 19.5-4 19.8-3.8.3.2 11.5-1.7 25-4.2 13.4-2.5 26.9-4.9 29.8-5.2 16.5-2.2 29-4.4 56-10.2 3.8-.8 8-1.6 9.2-1.7 27-3.7 54-8.1 80.7-13.2 9.7-2 19.5-3.4 29.3-4.4 5.4-.8 11.7-1 12.6-.6.3.1 2.6 0 5.1-.2 7.5-.8 15.1-.7 22.6.2 3.2.4 6.4.6 7.1.5.8-.2 1.5 0 1.5.4.1.4.5.7 1 .6 4.5-.9 15.4-1.7 17.2-1.4 1.2.3 3.1 1.6 4.1 2.9 2 2.5 6.6 4.6 10.4 4.6 4.7 0 12.8-.6 14.4-1.2 1-.3 1.8-.1 1.8.4.1.5.4.6.5.2.2-.3 1.1 0 2 .8 1 .8 4 2.5 6.8 3.7 4 1.7 6 2 9.7 1.6 5-.7 6-.1 6.2 3.4.1 2.3-2.2 4.7-5 5.3-1 .1-1.7.7-1.8 1.3-.2.5-1.3 1.1-2.5 1.4-3.5.7-8.6 3.7-8.4 4.8.4 2 5.9 3.2 10.8 2.6l14-2c10-1.5 11-1.5 11.9.3 1.2 2.5-6.2 13.7-12.9 19.3a9 9 0 00-3.5 5.7c-.7 4 .3 5.6 4.8 8 1.8.9 3.3 2.2 3.4 3 .2.7.8 1.8 1.5 2.5 2 1.7 2 4 0 6.2-.9 1.1-2.6 3.9-3.8 6.2-1.8 3.5-2.7 4.4-5.4 5.2-2.3.8-3.3 1.6-3.9 3.2-.4 1.2-.5 2.5-.3 2.9.3.3.2.7-.2.7-.4.1-.9 1.1-1.1 2.3-.2 1.2-.2 1.9 0 1.5.5-1 2.8 1.2 2.5 2.4-.2.6.2.7.8.3.6-.4.1.3-1.2 1.6a11.3 11.3 0 01-4.4 2.8c-1.1.2-2.8 1-3.6 1.7-1.1.9-1.6 1-1.8.1 0-.6-.3-.3-.6.6-.7 3.1 1.1 6 4.8 7.6a14 14 0 015 3.3 7 7 0 004.1 2.4c5.7 1 7.4 5.5 3.1 8.3a5.9 5.9 0 00-2 7.8c.7 1.5.8 2.2.3 2.3-1.2.3-2 2.8-1.5 5 .5 2 .4 2.1-4.8 5-.9.5-2.3 2.1-3.1 3.6-.9 1.6-2.3 3.5-3.2 4.4-.9 1-1.5 2.3-1.3 3 .3 1.6-1.8 3.9-4.5 4.9-3 1-4.1 2.4-3.8 4.8.2 2 3.6 5.6 4.9 5.3.8-.1 5.5 4.2 5.7 5.3.3 1.6-2 3.1-6.4 4.6a67 67 0 00-7.6 3c-2.9 1.5-13.2 6.3-15.5 7.2-1 .3-.9 3.6.1 3.4.3 0 .4.7.2 1.7s-.1 2 .2 2.3c1 1 2.8 12.4 2.1 13.9-.3.7-2 1.8-3.6 2.3-2.7.8-4.2 2.6-3.3 3.8.2.3 0 1-.4 1.8-.4.7-.8 1-.9.7 0-.4-.3-.1-.6.5-.5 1-1 1-1.7.4-.8-.5-1.5-.3-2.8.8-3 2.5-1.4 5 3.3 5.1 5.3.2 6.6.6 6 1.8-.2.3-4.8 1.7-10.3 3-11.7 2.8-12.9 3.8-12.6 10.5a33 33 0 01-.9 7.7 29 29 0 00-.9 9.8c.1.5-.8 1.2-2 1.6-1.5.5-2.2 1.3-2.2 2.6 0 1-.3 1.6-.7 1.4-.4-.2-.6 0-.5.5.1.5-1 2.3-2.4 4-4 4.6-4 7.7-.3 8.8 1.8.5 2 1.1 1.6 5.1-.3 3 2.2 4.3 9.7 5.2 7.3.8 9.5 2 7.9 4.2-1 1.4-10.2 2.2-24.8 2.3-6.6 0-9.2 1.3-10 4.9-.8 3.6-2.1 4.9-6.4 6.3-3.5 1.1-6.5 4.3-6 6.5.2 1.4 3.3 2 6.7 1.4 2.6-.4 6 1.3 4.7 2.4-.5.3-1.1 1.3-1.5 2-.4 1-.8 1.4-.9 1-.2-1-3.5 3.2-4 5.1-.6 2.4-3.5 6.1-4.9 6.3-3.4.5-7.8 2-7.7 2.7.3 1.4 4.5 4.6 5 3.9.4-.4.5-.2.3.4-.1.6.1 1.2.5 1.5.5.2.7.8.6 1.4-.2.5.2 1.4.8 2 1.7 1.9.6 3-4.4 4.5-2.5.8-5 1.8-7.3 3-1.6.8-6.8 3.2-11.7 5.3a85.8 85.8 0 00-12.2 6.3 22.5 22.5 0 01-7.5 3.3 36 36 0 00-8.5 3.7c-4.2 2.7-5.7 3-27.6 7.2l-28.8 5.1c-8.1 1.1-18.2 2.2-19.6 2.2-.7 0-8.4 1.1-17.3 2.6-12.6 2.2-18 3.5-24.7 6-6.5 2.3-13 4.4-19.7 6.2-6 1.5-12 3.2-13.3 3.7a470 470 0 01-29 8.9l-20.1 5.6c-6.1 1.7-18.4 5-27.4 7.1a473 473 0 00-18.3 4.8l-16.4 4.3c-8 2-15.3 4-16.3 4.3-2 .8-6.9 2.3-24.3 7.5-13.6 4-23.7 7.5-32 11a99.7 99.7 0 01-9 3.1c-1.5.3-3.4 1.1-4.4 1.8a30 30 0 01-5.8 2.6 84 84 0 00-10.1 4.4 93.7 93.7 0 01-10 4.4l-8.6 3.2c-2.6 1-6.5 2.5-8.7 3.2l-10.7 4.1c-3.8 1.6-9.3 3.6-12.2 4.6l-9 3c-2 .9-7.2 2.4-11.6 3.4-4.5 1-10.3 2.7-12.9 3.7-5.2 2-16.5 5.3-25.3 7.3-10.9 3.7-22 6.7-33.2 9.1-12.6 2.7-25 6-37.4 9.8l-15.9 4.2c-1.7.6-8.4 2.3-14.6 4a427.5 427.5 0 00-33.2 9.2c-8.2 2.6-16.5 5-24.8 7.4-1.2.5-6.2 2-11 3.3-4.8 1.4-8.9 2.6-9 2.8-.2.2-4 1.4-8.5 2.7-4.4 1.2-8.7 2.6-9.4 2.9-1.2.6-47.7 11.6-67.8 16-6 1.3-16 3.1-22.2 4l.1.2zM114.5 503c.4 0 0-.8-1-1.7-1.2-1.3-2.1-1.4-6-.3-2.5.6-4.6 1.6-4.6 2.2-.1 1.4 4.7 2 8.1 1l3.5-1.2zm6.8-52c0-.1-.3-.2-.7-.2-.4.1-.6.6-.5 1.1 0 .5.4.7.7.3.3-.4.6-.9.5-1.1v-.1zM83 431.6c0-.2-.5-.5-1.2-.6-.6-.2-.8 0-.5.5.5.7 1.9.9 1.7.1zm2.2-29.9c-.8-.7-.8-.6-.2.6.4.8.8 1.2 1 .9.1-.3-.2-1-.8-1.5zm3.4-11.8c-.8-.7-.9-.6-.3.6.4.8.9 1.2 1 .9.2-.3-.2-1-.7-1.5zm-6-4c-.3-.5-.7-.8-.8-.8-.2 0-.2.5-.2 1 .1.4.5.8.9.7.4 0 .4-.5.1-1v.1zm18.5-48c-.5-.2-1 0-1.2.3-.2.3.2.5 1 .3.7-.2.8-.5.2-.6zm-.5-2.4a15 15 0 01-3.7-5c0-.3.5-.2 1.1.3 1.6 1.2 2.2 0 .8-1.5-1.3-1.4-2.7.2-2.3 2.5.1.7 0 1.1-.4 1-.3-.3-.5.4-.4 1.3.2 1.2.6 1.7 1.5 1.5.7-.1 1.4.1 1.4.6.1.5.9.8 1.7.6 1.2-.3 1.3-.5.3-1.3zm-4.3-1c0-.2.2-.7.5-1.1.3-.4.6-.3.7.2 0 .6-.1 1-.5 1.1-.4.1-.7 0-.7-.2zm8.3-21c-.2-1.1-.4-1.5-.4-.9 0 .7-.4 1-.8.9-.4-.2-.4.2 0 .9.9 1.9 1.5 1.4 1.2-1v.1zm-3.5 0c.4-1.7-.5-1.9-1.1-.2-.4 1-.3 1.4.1 1.3.4 0 .8-.6 1-1.1zm15.8-35.1c0-.2-.5-.5-1.1-.7-.6-.1-1 .1-1 .6.1.5.7.8 1.2.6.5 0 1-.3 1-.5h-.1zM53 538.2c0-.5.1-1.2.4-1.6.3-.4.7 0 .8.7.2.8 0 1.5-.4 1.6-.3 0-.7-.3-.8-.7zm13.7-79c.3-.6 1-1 1.4-.8.6 0 .3.5-.5 1-1 .7-1.3.6-1-.2h.1zm9.4-1.8c-.8-.4-1-.7-.4-1 1.4-.5 1.8-.7 2.4-1.5.4-.5 1-.4 1.3 0 .5.7.4.8-.2.6-.5-.3-.7 0-.6.9.3 1.5-.8 2-2.5 1zm-3.8-1.3c.4-.8.9-1 1.4-.4.5.5.3.9-.6 1.2-1 .3-1.2.1-.8-.8zm14-17.1c-.1-.8.1-1.2.5-1 .4.3.9.8 1 1.3 0 .4-.2.9-.6 1-.3 0-.7-.5-.9-1.3zm-2-15c.6-3 .7-3.2 1-1 .1 1-.1 2.1-.6 2.5-.6.5-.7.2-.3-1.6l-.1.1zm-1.9-33.6c-.6-.3-.4-.8.7-1.5 2-1.2 2.6-.9 1.2.8-.5.7-1.4 1-1.9.7zm2.4-63c.2-.4.8-.5 1.3-.4.6.2.4.4-.3.6-.7.2-1.1 0-1-.3v.1zm1.4-4c.1-.4.7-.5 1.2-.4.6.2.5.4-.3.6-.7.2-1 .1-1-.2h.1zm9.6-14c-.2-.8 0-1.4.2-1.2.3.3.4 1 .3 1.7 0 .8-.2.6-.5-.4v-.1zm14.1-54.3c-.7-.4-.8-.7-.3-.8.4-.1 1 .2 1.3.6.7 1 .5 1-1 .2z" fill="#12003D"/><path d="M349 433.1l39.3-358.8 551.6 64-42 362.1L349 433v.2-.1z" fill="#333"/><path d="M470.5 378.2c21.6 1.4 42.6 8.8 63.9 13.6l-11.3-4.2a69.2 69.2 0 0185.4-65.3c15 3.5 29 12.2 44.5 11 28.1-1.1 46.2-32.3 73.5-39.2 35-8.6 70.6 25.3 105 15.1 14-3.6 25.4-14.7 38.8-20.5 11.2-5.2 27.1-5.1 35 3.1l9-77c-10.8 16-33.8 21.7-53.2 18-20.4-4.2-38.1-16.9-55-29.5-16.8-12.5-34.2-25.2-54.5-30.5-28.8-6.9-59 2.9-88.5 7.4a145.6 145.6 0 01-79.5-6.3l-2.6-1.1a44 44 0 01-11.6 6.6c-23 8-50.5-9.7-72.2 2-12.6 6.7-18.8 22-29 32.6-18.7 19.3-58.4 21.2-79 3.4l-23.3 200.3 11.6 1.4a114.3 114.3 0 0193.2-40.8h-.2v-.1zm356-119.1c1.5-.9 3.2-1.4 4.9-1.5h.6a13.5 13.5 0 11-4 1l-1.5.5z" fill="#fff"/><path d="M905 291.8c-7.9-8.3-23.8-8.4-35-3.2-13.4 6.1-24.4 16.7-38.4 20.6-34.8 10.2-70.4-23.8-105.3-15.1-27.4 6.8-45.5 38-73.4 39.5-15.4.6-29.4-7.8-44.7-11.4a69.2 69.2 0 00-84.9 65.4l11 4.2a111 111 0 0049.3 2.8c47.2-10.1 78.4-65.2 127-65.2 26.6.2 51.4 17.8 78 16.5 22-1.3 40.7-14.8 59.7-25.3 18.9-10.5 37.4-20.1 56-10.6l2-16.9-1.3-1.3z" fill="indigo"/><path d="M848.3 320.6c-19 10.5-38 24-59.6 25-26.7 1.6-51.2-16.3-78.3-16.2-48.4 0-79.9 55-127 64.9a111 111 0 01-49-2.5c-21.3-4.8-42.2-12.5-63.6-13.8a114.3 114.3 0 00-93.3 40.8l11.7 1.3a87.3 87.3 0 0180-15 85.6 85.6 0 0131.2 17.6c4.3 3.5 8 7.7 11.9 12l86.7 10 12.4-5a79 79 0 0152-4 44.8 44.8 0 0124.7 19.4l93.1 10.8a25.8 25.8 0 0116.4-11.3c7.2-1.5 15.3.3 21.6-3.4 7.6-3.9 10.2-13.6 14-21.1a52.2 52.2 0 0160.2-25.5l11-94.3c-18.7-9.5-37.6 0-56.1 10.3zm-97.5 123.2c-15.4 5.6-34.9-5-38.9-21a31.3 31.3 0 0115.6-33l-2.4.9c2.8-1.8 6-3 9.2-3.7l3-.5-.6.2c12.3-1.2 25.4 5 30.6 16.3a31 31 0 01-16.5 40.8zM866 350.4a8 8 0 01-6-14.5l-.9.1c1-.5 2-.7 3-.8a8 8 0 014.2 15.3h-.3v-.1z" fill="indigo"/><path d="M833.1 430.4c-3.8 7.8-6.3 17-14 21.4-6.2 3.4-14.3 1.5-21.5 3a25.8 25.8 0 00-16.7 11.4l104 12 8.5-73.6a52.1 52.1 0 00-60.3 25.8zm-399.6-28.7a87.3 87.3 0 00-44.3 18.4l123 14.6-11.8-12a85.6 85.6 0 00-66.9-21zM663.2 436a79.1 79.1 0 00-51.8 4l-12.4 5 89 10.4a44.8 44.8 0 00-24.5-19.4h-.3zm-2.8-288.8c-15.5-.6-31.8-5.5-46.4.5-13.2 5-22.3 17.2-33.3 25.6.9.1 1.4.8 2.2 1.2 25.4 9.4 53 11.5 79.5 6.2 29.8-4.8 59.5-14.6 88.8-7.3 20 5 37.4 17.9 54.3 30.2 16.9 12.2 34.5 25.2 55.3 29.4 19.3 3.7 41.8-2 52.8-18l7.4-63.8-223-25.9c-2.9 15-22 22.5-37.6 21.9zm160.3 126a13.2 13.2 0 1011-15.9h.3l-.6.3c-1.6.2-3.2.7-4.6 1.5l1.2-.4a13.8 13.8 0 00-7 14.5h-.3zm-84 113.5l.6.1-3 .2a27 27 0 00-9.2 3.7l2.4-1a31.4 31.4 0 00-15.6 33c3.7 16.2 23.2 26.4 38.9 21.1 15.6-5.2 23.6-25.8 16.5-40.8-5.2-11.3-18.6-17.5-30.6-16.3z" fill="indigo"/><path opacity=".3" d="M736.7 386.7l.6.1-3 .2a27 27 0 00-9.2 3.7l2.4-1a31.4 31.4 0 00-15.6 33c3.7 16.2 23.2 26.4 38.9 21.1 15.6-5.2 23.6-25.8 16.5-40.8-5.2-11.3-18.6-17.5-30.6-16.3z" fill="#fff"/><path d="M870.6 339.4a8.2 8.2 0 00-8.4-4.5h-.3a7 7 0 00-3 1.1l.8.1a7.9 7.9 0 1010.6 3.3h.3zM468 214c10-10.6 16.3-25.8 29.2-32.6 21.4-11.7 49.1 6 72.2-2a44 44 0 0011.6-6.5c11-8.2 20.1-20.4 33.4-25.7 14.5-5.4 30.8-.8 46.4-.5 15.6.4 34.6-6.3 37.3-21.6L402.7 90.7l-14.4 126 .6.4c20.6 18 60.3 16.2 79.1-3.2v.1z" fill="indigo"/><path opacity=".3" d="M905 291.8c-7.9-8.3-23.8-8.4-35-3.2-13.4 6.1-24.4 16.7-38.4 20.6-34.8 10.2-70.4-23.8-105.3-15.1-27.4 6.8-45.5 38-73.4 39.5-15.4.6-29.4-7.8-44.7-11.4a69.2 69.2 0 00-84.9 65.4l11 4.2a111 111 0 0049.3 2.8c47.2-10.1 78.4-65.2 127-65.2 26.6.2 51.4 17.8 78 16.5 22-1.3 40.7-14.8 59.7-25.3 18.9-10.5 37.4-20.1 56-10.6l2-16.9-1.3-1.3zM615.4 115.7L402.6 91l-14.3 126 .6.1C409.5 235 449.3 233 468 214c10-10.6 16.3-25.8 29.2-32.6 21.4-11.7 49.1 6 72.2-2a44 44 0 0011.6-6.5c11-8.2 20.1-20.4 33.4-25.7 14.5-5.4 30.8-.8 46.4-.5 15.6.4 34.3-6.3 37.3-21.6" fill="#fff"/><path d="M761 287.2l-11.2-81.8L515.2 237v-.6l11.1 82.1 235-31.4-235 31.7-11-82.4 234.9-31.7v.3l10.8 82v.2z" fill="#333"/><path d="M757.6 283.5l6-.4.7 6-6 .7-.7-6.3zm-234.8 32.7l6-.8.8 6-6 .7-.8-6v.1zm223.7-114.8l6-.8.7 6-6 .8-.7-6zm-118.4 16l6-.7.7 6-6 .8-.7-6v-.1zm11 82.5l6-.8.8 6-6 .8-.8-6zm-122.3-26l6.3-.8.8 6-6 .8-1.1-6zm235-31.7l6-.8.7 6-6 .7-.7-6v.1zm-240.2-7.9l6-1 .9 6-6 .7-.9-5.7z" fill="#333"/><path opacity=".3" d="M833.1 430.4c-3.8 7.8-6.3 17-14 21.4-6.2 3.4-14.3 1.5-21.5 3a25.8 25.8 0 00-16.7 11.4l104 12 8.5-73.6a52.1 52.1 0 00-60.3 25.8zm37.5-91a8.2 8.2 0 00-8.4-4.5h-.3a7 7 0 00-3 1.1l.8.1a7.9 7.9 0 1010.6 3.3h.3zm-437 62.3a87.3 87.3 0 00-44.4 18.4l123 14.6-11.8-12a85.6 85.6 0 00-66.9-21h.1zM663.1 436a79.1 79.1 0 00-51.8 4l-12.4 5 89 10.4a44.8 44.8 0 00-24.5-19.4h-.3z" fill="#333"/><path d="M758.6 292.2l3 1.8-.3.6-2.7-2v-.4zm78 47.8l-6.1 9.2-2.8-1.8 6.4-9.5 2.8 2h-.3v.1z" fill="#333"/><path d="M545.3 277l5.7-.8c4-.6 6.8-2.2 8.5-4.9 1.8-2.7 2.4-6 1.9-9.6-.5-3.5-2-6.3-4.6-8.4-2.6-2-5.7-2.8-9.3-2.4l-5.6.8 3.4 25.2v.1zm-7.7-28.2l9.5-1.3a16 16 0 0112.2 2.9c3.4 2.5 5.5 6 6 10.8.7 4.6-.2 8.6-2.6 12.1a14.9 14.9 0 01-11.2 6.2l-9.7 1.3-4.2-32zm49 12.3v-1c-.3-2-1-3.5-2.3-4.5a5.7 5.7 0 00-4.7-1.3 6.5 6.5 0 00-4.4 2.6 9 9 0 00-1.5 5.9l13-1.7h-.1zm3.5 8.5l.4 3.5c-1.7 1.3-4 2-6.6 2.4a12 12 0 01-9.3-2.1c-2.5-2-4-4.8-4.5-8.5-.5-3.8 0-7 1.8-9.5a10 10 0 017.2-4.3 9 9 0 017.6 2c2 1.6 3.3 4.2 3.8 7.8l.1 2.8-16.5 2.2c.6 2.3 1.8 4 3.5 5.1a9 9 0 006.2 1.1c2.7-.3 4.8-1.2 6.3-2.5zm18-21.2l.4 3.5c-1.6-.7-3.7-.9-6.2-.5-1.3.2-2.2.6-3 1.3a3 3 0 00-.7 2.4c0 .5.2 1 .5 1.5.3.3.8.7 1.5 1 1.2.5 2.4 1 3.6 1.3a16 16 0 015.2 2.2c1.2.9 2 2.2 2.2 4a6 6 0 01-1.5 5.2 9 9 0 01-5.7 2.5c-2.9.4-5.3.3-7.3-.5l-.4-3.7a12 12 0 007 1c1.5-.2 2.6-.6 3.3-1.3.7-.6 1-1.5.8-2.4a3 3 0 00-1.6-2.5c-1-.6-2.4-1-4.5-1.6-1.9-.5-3.5-1.2-4.7-2a6 6 0 01-2.2-4c-.3-2 .3-3.8 1.6-5.1a9 9 0 015.4-2.6c2.5-.3 4.6-.2 6.2.3h.1zm9.7 22.4l-3.2-24.1 3.7-.5 3.2 24-3.7.6zm-3.9-30c-.5-.4-.8-1-.9-1.6 0-.7 0-1.3.4-1.9.4-.5 1-.8 1.7-1 .7 0 1.3.1 1.9.6.5.4.8 1 .9 1.6 0 .7 0 1.3-.5 1.9-.4.5-1 .8-1.7.9-.7 0-1.3 0-1.8-.5zm23.3 23.4a6.4 6.4 0 004.3-2.6c1.2-1.6 1.6-3.7 1.3-6.3-.4-3.1-1.4-5.3-2.9-6.6a6 6 0 00-4.8-1.7c-2 .3-3.6 1.4-4.6 3.2-1 1.7-1.3 4-1 6.6.4 2.7 1.4 4.7 2.9 5.9a6.2 6.2 0 004.8 1.5zm4-21l3.7-.6 3 22.2c.5 3.7-.2 6.6-2 8.7a11.2 11.2 0 01-7.4 3.9c-3 .3-5.5.2-7.7-.5l-.5-3.8a13 13 0 007.4.8c2.3-.3 4-1.1 5.2-2.6 1.2-1.4 1.6-3.4 1.2-6l-.3-2.7a7.8 7.8 0 01-6.6 5c-2.8.4-5.3-.3-7.5-2.1-2.3-2-3.8-5-4-8.1a14 14 0 011.5-9.2c1.5-2.6 3.7-4 6.7-4.4 3.3-.5 5.9.7 7.8 3.3l-.5-4v.1zm14.1-2l.6 4.3c1-3.2 3.3-5 7-5.6 2.3-.3 4.3.2 5.9 1.4 1.6 1.3 2.5 3 2.8 5.5l2.2 16.6-3.7.5-2.1-15.6c-.2-1.8-.9-3.1-2-3.9-1-.8-2.2-1.2-3.6-1a6.4 6.4 0 00-4.5 2.8 8.3 8.3 0 00-1.1 6l1.7 13.2-3.7.5-3.2-24.1 3.7-.5v-.1z" fill="#12003D"/><path d="M724 100.5a17.9 17.9 0 013-25.3l12.7-9.8a17.9 17.9 0 0126.7 22.7c-1.2 2-2.8 3.8-4.6 5.3L749 103a17.9 17.9 0 01-25-2.9v.4z" fill="#333"/><path d="M658.3 172l77-61-18.8-23.8-77 61a5.6 5.6 0 00-1.6 6 5.3 5.3 0 01-.5 4.7 8.2 8.2 0 004.4 12.9 8 8 0 005.3-.3 5.3 5.3 0 014.7.6 5.6 5.6 0 006.5-.5v.4z" fill="#fff"/><path d="M642.8 175.1a11.4 11.4 0 01-8-17.7 2 2 0 00.3-2 8.8 8.8 0 012.6-9.8l77-60.6a3 3 0 014.3.5l18.9 23.4a3 3 0 01-.6 4.4l-77 61a8.5 8.5 0 01-10 .2c-.6-.3-1.2-.3-1.8-.2a11 11 0 01-5.7.8zM716 91.3l-74.7 59.2a2.3 2.3 0 00-.4 2.9 8.2 8.2 0 01-.8 7.6 5.3 5.3 0 006.1 7.8 8.2 8.2 0 017.6.8 2.3 2.3 0 003 0l74.7-59L716 91.2v.1z" fill="indigo"/><path d="M712.3 75.2a8.8 8.8 0 0112.2 1.5l22.9 28.9a8.8 8.8 0 01-1.4 12.2 8.8 8.8 0 01-12.3-1.4l-23.2-29a8.8 8.8 0 011.5-12.2h.3z" fill="#333"/><path d="M317 116.4L394.3 97l80.4 317.7-77.3 19.5L317 116.4z" fill="indigo"/><path opacity=".7" d="M317 116.4L394.3 97l80.4 317.7-77.3 19.5L317 116.4z" fill="#fff"/><path opacity=".3" d="M326.7 130.1l65.8-16.6 7.7 30.3-65.9 16.6-7.6-30.3z" fill="#333"/><path opacity=".4" d="M335.9 166.6l65.9-16.6 7.6 30.3-65.8 16.7-7.7-30.4z" fill="#333"/><path opacity=".5" d="M345.2 203.4l65.9-16.7 7.6 30.3-65.8 16.7-7.7-30.3z" fill="#333"/><path opacity=".7" d="M354.4 239.9l66-16.7 7.6 30.3-65.9 16.7-7.7-30.3z" fill="#333"/><path opacity=".8" d="M363.7 276.4l65.9-16.6 7.6 30.3-65.8 16.6-7.7-30.3z" fill="#333"/><path opacity=".9" d="M373 313.2l65.9-16.7 7.6 30.3-65.8 16.7-7.7-30.3z" fill="#333"/><path d="M382.2 349.7l65.9-16.7 7.7 30.3-65.9 16.7-7.7-30.3z" fill="#333"/><path d="M271.7 162.2l73-33 133.6 299.5-72.6 32.5-134-299z" fill="indigo"/><path opacity=".8" d="M271.7 162.2l73-33 133.6 299.5-72.6 32.5-134-299z" fill="#fff"/><path d="M283.6 173.9l62-27.7 12.8 28.6-62 27.7-12.8-28.6zm15.3 34.6l62-27.7 12.9 28.6-62.1 27.5-12.8-28.4zm15.5 34.3l62-27.7 13 28.6-62.1 27.7-12.9-28.6zm15.4 34.6l62-27.7 12.9 28.6-62 27.7-12.9-28.6zm15.3 34.3l62-27.7 12.9 28.6-62 27.7-12.9-28.6zm16.5 37.2l62.4-27.8 12.9 28.8-62.5 27.8-12.8-28.8zm14.4 31.7l62-27.7 12.9 28.6-62 27.7-12.9-28.6z" fill="indigo"/><path opacity=".1" d="M283.6 173.9l62-27.7 12.8 28.6-62 27.7-12.8-28.6zm15.3 34.6l62-27.7 12.9 28.6-62.1 27.5-12.8-28.4z" fill="#333"/><path opacity=".2" d="M314.4 242.8l62-27.7 13 28.6-62.1 27.7-12.9-28.6z" fill="#333"/><path opacity=".3" d="M329.8 277.4l62-27.7 12.9 28.6-62 27.7-12.9-28.6z" fill="#333"/><path opacity=".4" d="M345.1 311.7l62-27.7 12.9 28.6-62 27.7-12.9-28.6z" fill="#333"/><path opacity=".5" d="M361.6 349l62.4-28 12.9 28.8-62.5 27.8-12.8-28.8v.2z" fill="#333"/><path opacity=".6" d="M376 380.6l62-27.7 12.9 28.6-62 27.7-12.9-28.6z" fill="#333"/><path d="M232 216.3l66.3-44.7L482 443l-66.2 44.8L232 216.4v-.1z" fill="indigo"/><path opacity=".9" d="M232 216.3l66.3-44.7L482 443l-66.2 44.8L232 216.4v-.1z" fill="#fff"/><path d="M246 225.8l56.2-38 17.5 25.8-56 38-17.6-25.8h-.1zm21.2 31.2l56.1-38 17.5 25.8-56 38.2-17.6-26zm21.1 31.3l56.2-38 17.4 25.8-56 38.1-17.6-26v.1zm21.2 31.2l56.1-38 17.5 25.8-56.1 38.2-17.5-26zm21.2 31.5l56-38 17.6 25.7L348 377l-17.3-26zm21.1 31.2l56.3-38 17.5 25.7-56.3 38.3-17.5-26zm21.2 31.4l56.3-38.2 17.4 25.8-56.2 38.2-17.5-25.8z" fill="indigo"/><path opacity=".6" d="M246 225.8l56.2-38 17.5 25.8-56 38-17.6-25.8h-.1z" fill="#fff"/><path opacity=".5" d="M267.2 257l56.1-38 17.5 25.8-56 38.2-17.6-26z" fill="#fff"/><path opacity=".4" d="M288.3 288.3l56.2-38 17.4 25.7-56 38.2-17.6-26v.1z" fill="#fff"/><path opacity=".3" d="M309.5 319.5l56.1-38 17.5 25.8-56.1 38.2-17.5-26z" fill="#fff"/><path opacity=".2" d="M330.7 351l56-38 17.6 25.7L348 377l-17.3-26z" fill="#fff"/><path opacity=".1" d="M351.8 382.2l56.3-38 17.5 25.7-56.3 38.3-17.5-26z" fill="#fff"/><path d="M846.8 179.8l223 26-10.1 86.6-223-25.9 10.1-86.7z" fill="#fff"/><path d="M1059.9 292.4l.2-1.6.5-4.3 2-17.4 6.9-63.4.4.5-223-25.9.6-.4-10 86.7-.5-.5 159.6 18.5 46.7 5.7 16.6 1.9-16.4-2-46.5-5-160-18.4-.8-.1v-.5l10.2-87.4h.7l223 26.2h.4l-7.4 64.2-2.2 17-.6 4.6-.4 1.6z" fill="#333"/><path d="M846.8 179.8l223 26-2.2 18.5-223-25.9 2.2-18.6zm22.9 36l21.9 2.5-2.6 22-21.9-2.6 2.6-22v.1z" fill="#333"/><path d="M881.2 230.4l22 2.6-2.6 21.9-21.9-2.6 2.5-21.9zm40.6-8.6l22 2.6-2.6 21.9-22-2.5 2.6-22z" fill="#333"/><path d="M933.6 236.5l22 2.5-2.6 22-22-2.6 2.6-21.9z" fill="#fff"/><path d="M952.8 261c0-.6 0-1.2.2-1.7l.5-4.6 1.3-15.7.4.7-21.7-2.5.6-.6-2.5 21.9-.4-.8 15.6 2.3 4.6.5 1.6.2c-.5 0-1 0-1.4-.2l-4.6-.2-16-1.7h-.7l.1-.5 1.2-10.3 1.3-11.6c-.5.6.8-.7.8-.4l22.4 2.6v.5l-2.1 15.9-.6 4.5c-.1.6-.3 1.1-.6 1.6v.1z" fill="#333"/><path d="M970.4 227.5l22 2.5-2.6 22-22-2.6 2.6-22v.1z" fill="#fff"/><path d="M989.8 251.7l.2-1.7.5-4.5 1.3-15.5.5.5-22-2.5.8-.7-2.5 22-.4-.6 15.5 1.8 4.7.8c.5 0 1 0 1.4.2-.5 0-1 0-1.4-.2l-4.3-.3-16-1.3-.7-.1v-.7l1.2-10.3 1.4-11.4.8-.6 22.3 2.6-1.9 16.6-1 4.3c0 .6 0 1.3-.2 1.9l-.2-.3z" fill="#333"/><path d="M982.2 242.1l22 2.6-2.6 21.9-22-2.5 2.6-22z" fill="#fff"/><path d="M1001.6 266.6c0-.6 0-1.1.2-1.7l.3-4.5 1.6-15.8.4.8-22-2.5.8-.7-2.5 22-.6-.9 15.6 2.3 4.8.6c.5 0 1 0 1.4.2-.5 0-1 0-1.4-.2l-4.3-.3-16.2-1.6h-.5v-.5l1.2-10.3 1.4-11.7c-.6.7.8-.6.7-.3l22.4 2.6v.4l-2.1 16-.5 4.5c-.1.6-.4 1.1-.7 1.6z" fill="#333"/><path d="M982.2 242.1l8.6 1-1 8.6-8.6-1 1-8.6zm33-9.4l21.9 2.5-2.5 22-22-2.6 2.6-22v.1z" fill="#333"/><path d="M1027 247.3l22 2.6-2.6 21.9-22-2.5 2.6-22z" fill="#333"/><path d="M1027 247.3l8.6 1-1 8.6-8.6-1 1-8.6zM807.2 356.9L948 373.2 931.8 514 791 497.7l16.3-140.8h-.1z" fill="#fff"/><path d="M898.8 530.3s1.2-.3 2.8-.1c1.5.2 2.8.5 2.8.7 0 .2-1.4.4-3 .3-1.5-.2-2.6-.5-2.6-1v.1zM888 529s1.4-.2 3 0a6 6 0 012.6.6c0 .2-1.2.5-2.8.3-1.5-.2-2.8-.5-2.8-.9zm-10.8-1.2s1.2-.3 2.8-.1c1.5.2 2.6.5 2.6.7 0 .2-1.2.4-2.7.2-1.6-.1-2.7-.5-2.7-.8zm-11-1.3s1.3-.3 2.8 0c1.6 0 2.7.4 2.7.6 0 .2-1.3.4-2.8.3-1.5-.2-2.7-.5-2.6-1l-.1.1zm-10.9-1.3s1.2-.2 2.8 0c1.5.1 2.6.4 2.6.6 0 .2-1.2.5-2.7.3-1.6-.2-2.7-.5-2.7-.9zm-11-1.3h2.8l2.9.7c0 .2-1.4.4-3 .2-1.5-.2-2.7-.5-2.6-.9h-.1zm-10.7-1.2s1.2-.3 2.6-.1c1.3.1 2.8.5 2.8.7 0 .2-1.4.4-2.7.3-1.4-.2-2.9-.6-2.9-1h.2v.1zm-11-1.3s1.3-.2 2.8 0c1.6.1 2.7.4 2.7.6 0 .2-1.3.5-2.8.3-1.5-.2-2.9-.5-2.8-1l.2.1h-.1zm-10.9-1.3s1.2-.2 2.8 0c1.5.2 2.6.5 2.6.7 0 .2-1.2.4-2.7.2-1.6-.1-2.7-.5-2.7-.9zm-11-1.2s1.3-.3 2.8-.1c1.6.2 2.7.5 2.7.7 0 .2-1.3.4-2.8.3-1.5-.2-2.7-.5-2.6-1l-.1.1zm-10.9-1.3s1.2-.3 2.8 0c1.5.1 2.8.5 2.8.6 0 .2-1.4.5-3 .3-1.5-.2-2.6-.5-2.6-.9zm-11-1.3s1.5-.2 3 0 2.7.5 2.7.7c0 .2-1.5.4-2.8.2-1.3-.1-2.9-.5-2.8-.9h-.1zm-7.2-4c.1 0 .2 1.3 0 2.8v.4l-.4-.4c1.4.1 2.3.4 2.3.6 0 .2-1 .5-2.4.3h-.5v-1c.2-1.6.6-2.7 1-2.6v-.1zm1.2-10.9c.2 0 .3 1.2.1 2.7-.2 1.6-.3 2.7-.7 2.7-.4 0-.4-1.2-.3-2.8.2-1.5.5-2.6 1-2.6h-.1zm1.3-10.7c.2 0 .2 1.2 0 2.7-.1 1.5-.3 2.7-.6 2.6-.4 0-.5-1.2-.3-2.7.2-1.6.5-2.7.9-2.6zm1.2-11c.2 0 .3 1.2.1 2.7-.2 1.6-.3 2.7-.7 2.7-.4 0-.4-1.2-.2-2.8.1-1.5.5-2.6.8-2.6zm1.3-11c.2 0 .3 1.3 0 2.8 0 1.5-.2 2.9-.6 2.8-.4 0-.4-1.4-.3-3 .2-1.5.5-2.6 1-2.5l-.1-.1zm1.3-10.9c.2 0 .2 1.2 0 2.7-.1 1.6-.3 2.7-.6 2.7-.4 0-.5-1.2-.3-2.8.2-1.5.5-2.6.9-2.6zm1.3-11v2.8c-.1 1.3-.3 2.9-.7 2.8-.4 0-.4-1.4-.2-3 .2-1.5.5-2.6.9-2.5v-.1zm1.2-10.7c.2 0 .3 1.2 0 2.7 0 1.6-.2 2.7-.6 2.7-.4 0-.4-1.4-.3-2.8.2-1.3.6-2.8 1-2.8v.2h-.1zm1.3-11c.2 0 .2 1.2 0 2.8-.1 1.5-.3 2.7-.6 2.6-.4 0-.5-1.2-.3-2.7.2-1.6.5-2.7.9-2.7zm1.3-11c.1.1.2 1.3 0 2.8-.2 1.6-.3 2.7-.7 2.7-.4 0-.4-1.2-.2-2.8.1-1.5.5-2.7.9-2.6v-.1zm1.2-10.9c.2 0 .3 1.2.1 2.8-.2 1.5-.3 2.7-.7 2.6-.4 0-.4-1.2-.3-2.7.2-1.6.5-2.7 1-2.7h-.1zm1.3-10.9v2.7c0 1.4-.3 3-.6 2.9-.4 0-.5-1.4-.3-3 .2-1.5.5-2.6.9-2.6zm2-10l-.9.4.3-.4v2c-.3 1.5-.4 2.7-.8 2.6-.4 0-.4-1.2-.2-2.7 0-.7.2-1.3.4-2v-.3h.2c.6 0 1 .1 1 .5v-.1zm10.9 1.4h-2.8c-1.3-.1-2.8-.3-2.8-.7 0-.4 1.4-.4 3-.2 1.5.2 2.6.5 2.6.9zm11 1.2l-2.8.1c-1.4-.1-2.9-.3-2.8-.7 0-.4 1.4-.4 3-.3 1.4.2 2.6.6 2.5 1l.1-.1zm10.9 1.3c0 .2-1.2.3-2.8 0-1.5-.1-2.6-.2-2.6-.6 0-.4 1.2-.5 2.8-.3 1.5.2 2.6.5 2.6 1v-.1zm10.7 1.3c0 .2-1.2.2-2.7 0-1.5-.1-2.7-.3-2.6-.7 0-.4 1.2-.4 2.7-.2 1.6.1 2.7.5 2.6.9zm11 1.2c0 .2-1.2.3-2.7.1-1.6-.2-2.7-.3-2.7-.7 0-.4 1.2-.4 2.8-.3 1.5.2 2.6.5 2.6 1v-.1zm11 1.3c0 .2-1.3.3-2.8 0-1.5-.1-2.7-.2-2.6-.6 0-.4 1.2-.5 2.7-.3 1.6.2 2.7.5 2.6.9h.1zm10.9 1.3c0 .2-1.4.2-3 0-1.5-.2-2.6-.3-2.6-.7 0-.4 1.4-.4 3-.2 1.5.2 2.6.5 2.6.9zm11 1.2c0 .2-1.5.3-3 .1-1.5-.2-2.7-.3-2.6-.7 0-.4 1.2-.4 2.7-.3 1.6.2 2.9.6 2.8 1l.1-.1zm10.7 1.3c0 .2-1.2.2-2.7 0-1.6-.1-2.7-.2-2.7-.6 0-.4 1.2-.5 2.8-.3 1.5.2 2.6.5 2.6.9zm11 1.3c0 .2-1.3.2-2.8 0-1.5-.1-2.7-.3-2.6-.7 0-.3 1.2-.4 2.7-.2 1.6.2 2.7.5 2.6.9h.1zm10.9 1.2c0 .2-1.2.3-2.7.1-1.6-.2-2.7-.3-2.7-.7 0-.4 1.2-.4 2.8-.2 1.5.1 2.6.5 2.6.8zm10.8 1.3c0 .2-1.2.2-2.6 0-1.3 0-2.9-.3-2.8-.6 0-.4 1.4-.5 3-.3 1.5.2 2.6.5 2.5 1l-.1-.1zm.6 9.6c-.4 0-.4-1.4-.3-3 .2-1.5.6-2.6 1-2.6.3 0 .2 1.4 0 2.8-.1 1.3-.5 2.8-.7 2.8zm-1.3 10.8c-.3 0-.4-1.3-.2-2.8.2-1.5.5-2.7.9-2.6.3 0 .2 1.2 0 2.7-.1 1.6-.5 2.7-.7 2.7zm-1.2 11c-.4-.1-.5-1.3-.3-2.8.2-1.6.5-2.7.9-2.7s.2 1.2 0 2.8c-.1 1.5-.4 2.6-.6 2.6v.1zm-1.3 10.9c-.4 0-.4-1.3-.3-2.8.2-1.5.5-2.7 1-2.6.3 0 .2 1.2 0 2.7-.2 1.6-.5 2.7-.7 2.7zm-1.3 11c-.4-.1-.4-1.3-.2-2.8.1-1.6.5-2.9.9-2.9s.2 1.4 0 3c-.2 1.5-.5 2.6-.7 2.6v.1zm-1.2 10.9c-.4 0-.5-1.4-.3-3 .2-1.5.5-2.7.9-2.6.4 0 .2 1.4 0 2.7 0 1.4-.5 2.9-.6 2.9zm-1.3 11c-.4-.1-.5-1.3-.3-2.8.2-1.6.5-2.7 1-2.7.3 0 .2 1.2 0 2.8-.2 1.5-.5 2.6-.7 2.6v.1zm-1.3 10.7c-.4 0-.4-1.2-.2-2.8.1-1.5.5-2.7.9-2.6.3 0 .2 1.2 0 2.7-.1 1.6-.5 2.7-.7 2.7zm-1.2 11c-.4-.1-.5-1.3-.3-2.8.2-1.6.5-2.7.9-2.7s.2 1.2 0 2.8c-.1 1.5-.4 2.6-.6 2.6v.1zm-1.3 10.9c-.4 0-.5-1.2-.3-2.8.2-1.5.5-2.7 1-2.6.3 0 .2 1.2 0 2.7-.2 1.6-.5 2.7-.7 2.7zm-1.3 11c-.4-.1-.4-1.5-.2-2.8.1-1.4.5-2.9.9-2.9.3.1.2 1.4 0 2.8-.1 1.3-.5 2.8-.7 2.8v.1zm-1.3 10.9c-.3 0-.4-1.4-.2-3 .2-1.5.5-2.6.9-2.6s.2 1.2 0 2.7c-.1 1.6-.5 2.9-.7 2.9z" fill="#333"/><path d="M900.1 524.2l9.8 1.1-1.1 9.8-9.8-1.1 1.1-9.8zm-133.4-14.1l9.8 1-1.2 9.9-9.8-1.1 1.2-9.8zm148.9-118.8l9.8 1-1.2 9.9-9.8-1.1 1.2-9.8zM782 376.7l9.8 1.2-1 9.8-9.9-1.2 1.1-9.8zm42.8 114.6l-19.9-25c-.8-1-2.4-1.3-3.5-.4l-11.3 9c-1.1.9-1.3 2.5-.5 3.5l19.9 25c.8 1.2 2.4 1.3 3.5.5l11.4-9c1-.9 1.2-2.5.4-3.6z" fill="#333"/><path d="M868 436.6l-49.9 39.5-6.7-8.5c7.3-5.7 5.3-21.4 5.3-21.4l14-11c20.3-.4 66-25.4 66-25.4l1.2 1.5-29.6 23.4a1.4 1.4 0 00-.2 2l-.1-.1zm-7.3 36.8l-14 11s-14.7-5.5-22 .2l-6.6-8.3 49.8-39.6a1.4 1.4 0 002.1.1l29.4-23.4 1.2 1.6s-34.8 38.6-39.9 58.4z" fill="indigo"/><path opacity=".2" d="M860.7 473.4l-14 11s-14.7-5.5-22 .2l-6.6-8.3 49.8-39.6a1.4 1.4 0 001 .6 1.4 1.4 0 001.1-.5l29.4-23.4 1.2 1.6s-34.8 38.6-39.9 58.4z" fill="#fff"/><path d="M895.4 503.6l-.8-.9A68.7 68.7 0 10809.3 395l-.7-1a69.9 69.9 0 0186.8 109.6z" fill="indigo"/><path d="M851.4 337.3l.9-.6 109 137.7-.9.7-109-137.8z" fill="indigo"/><path d="M906.9 400.7l4.5 5.7-5.7 4.4-4.5-5.6 5.7-4.5z" fill="indigo"/><path d="M905.7 411.8l-5.4-6.7 6.8-5.3 5.3 6.7-6.7 5.3zm-3.4-6.4l3.7 4.6 4.6-3.7-3.7-4.6-4.6 3.7z" fill="indigo"/><path d="M809.5 389.4l4.6 5.7-5.7 4.4-4.6-5.6 5.7-4.5z" fill="#fff"/><path d="M808.3 400.5l-5.3-6.7 6.7-5.4 5.3 6.8-6.7 5.3zm-3.5-6.5l3.7 4.7 4.6-3.7-3.7-4.6-4.6 3.6z" fill="indigo"/><path d="M895.8 498.4l4.4 5.7-5.6 4.5-4.5-5.7 5.7-4.5z" fill="#fff"/><path d="M894.7 509.3l-5.4-6.5 6.6-5.4 5.5 6.7-6.7 5.2zm-3.5-6.3l3.7 4.7 4.6-3.7-3.6-4.6-4.7 3.6z" fill="indigo"/><path d="M963.4 477.7a3.7 3.7 0 11-4.7-5.6 3.7 3.7 0 014.7 5.6z" fill="#fff"/><path d="M960.7 479a4.2 4.2 0 113-.7c-.9.7-2 1-3 1V479zm.8-7a3 3 0 00-3.6 3.9 3 3 0 103.6-3.9z" fill="indigo"/><path d="M854 339.8a3.6 3.6 0 11-4.4-5.7 3.6 3.6 0 014.4 5.7z" fill="#fff"/><path d="M851.4 341.2a4.2 4.2 0 114.6-3.7 4 4 0 01-1.5 2.8 4.2 4.2 0 01-3.1.9zm.8-7.2a3 3 0 00-3 1.5 3 3 0 004.5 3.7 3 3 0 00-1.5-5.2z" fill="indigo"/></svg>