<?xml version="1.0" encoding="UTF-8"?> <svg xmlns="http://www.w3.org/2000/svg" fill="none" viewBox="0 0 1200 600"><path fill="#12003D" d="M740.4 595c14.5.7 29 2.2 43.5 4.4l25.6-.4-16.9-1.7-33.7-4.9-27.8-2.8-2.7 2.7 12 2.7Zm-58.5-14.8-2.4-.3-.2 1.5 2.6-1.2ZM606 568c2.5-1.3 2.5-1.3.1-1.5l-3.5-1.8-11.6-7.1-3.6-.4-.1 1.5 2.4.2 12.7 8.7 3.6.4Zm19.3 2 1.4-1.4-1.2-.2-.2 1.5Zm58 7.3 8.5-.6 2.5.2 1.3-1.3-7-3.7-35.7-11 2.6-1.2c2.4.2 2.4.2.1-1.5l-5 1-6.1.8-4.7-2-7-3.6-1.1-1.6-3.6-.3c-5.1-2.2-10.2-4.2-15.4-6l-8.2-3.8-5.9-2.1-14-7.3-4.7-2-1.1-1.6 2.7-2.7 6 .7 7.1 2.2 1.4-1.4-1.1-1.6.1-1.4h1.2l-1-1.5-2.6 1.2-1.2-.1-.1 1.5-1.4 1.3-1-1.6V525h-.9c-1.4 1.3-3.7-.4-3.5-2 .1-1.4 1.3-1.3 0 0l-2.4-.2-2.6 1.3-2.7 2.7v1.4l-4.8-2-2.3-1.6-9.4-4-11.8-4.1-1.1-1.6.1-1.5-8.3-2.3-1.1-1.6-4.6-3.4-3.4-3.3c.1-1.5 1.5-2.8 3.9-2.6l4.8.5h-1.2c-5 2.4-5 2.4 4.7 1.9 15.8 1.6 20.7.6 22.2-2.2l-4.9-.5-5 1-8.3-2.4-14-7.3c.2-1.5 4-4 7.7-3.7 3.6.4 3.5 1.9 2.1 3.2l2.6-1.2 12.3-1.7 21.8 2.2 6.2-.8 4.8.4 3.8-1 8.4.8 6.2-.9a76 76 0 0 0 19.6-1l1.3-1.3 2.2 3.2 4.8.5 12.4-1.7 7.4-.7 12.2-.3 3.7-1-5.9-2.1c-6-.7-7.1-2.2-2.3-1.8l5.1-2.4 8.5.9 6.2-.9c4.8.5 8.4.9 2.5-1.2l-2.4-.3c-1.1-1.5 3.9-2.5 6.3-2.3l2.5-1.2 6.3-2.3 8.7-2 6.2-1 8.7-2 11.2-1.8 17.3-2.7 8.6-.6 12 1.2 2.6-1.2 3.8-1.1c5.5 1.3 11.1 2.4 16.8 3.2l2.4.2 2.3 1.7-1.4 1.4-1.2-.2 1.1 1.6-1.5 2.8-2.6 2.7c-.3 3-.3 3-2.7 2.7l-4.8-.5c-1.5 2.8-5.3 4-7.7 3.7a187 187 0 0 0-35.5 2.3l-11 .3-9.6-2.4-2.5 1.2 2.2 1.7 2.5.3-2.6 1.2-1.3 1.3 7.1 2.2c8.5.9 8.5.9 8.2 3.8l1.2.1 4.7 2 6.2-.9 15.9.2-1.4 1.3-2.5 1.2 8.4.9 19.8-2.4c1 1.5 1 3-1.5 2.8l-3.9 2.5-5 2.5c-5-.5-5-.5-5.2 2.4l-1.3 1.4-1-1.6.2-3-3.8 1.1-2.6 2.7c-1.1-1.6-2.5-.2-2.6 1.2l-3.7 1.1-2.7 2.7-5.1 2.5-1.3 1.3 7.2.7c3.9-2.5 8.7-2 10-2l1 1.7 8.7-2.1 19.8-2.4 16-1.4 2.4.3c3.8-2.6 6.1-.9 5.6 5-1.6 4.3-1.6 4.3 1 3l11.2-3.3 11.2-1.8 9.9-2 4.8.6 11-.4c1.4-1.3 11.3-3.3 13.6-1.6l2.5-1.2 8.8-2 6.1-1 7.3.8 2.3 1.7 3.6.4 10.6 4 3.5 1.8-.2 3 6 .6 4.7 2 7 5 4.6 2c7 3.7 15.1 9 19.4 15.3l6 2c3.5 2 11.7 5.7 19.6 12.4l6.9 5.1 3.5 1.9 5.8 3.5c7.6 4 15 8.8 22 14 13.7 5 27.5 9.8 41.4 14.6l12.2-.2c1.3-1.4-4.5-5-8.2-3.8l-1.1-1.6 1.2.1c2.6-1.2 1.3-1.3-1-3-2.4-.3-3.7 1-2.6 2.6l-5 1a905.5 905.5 0 0 0-44.5-20.7c-1-3.1-6.8-6.6-11.6-7.1-8.5-.9-9.6-2.5-10.6-4l-2.2-3.2-2.3-1.8-6.7-6.5 15.5 3 9.3 5.4 4.6 3.4 3.5 1.8 6 2.1-2.4-1.7-3.3-3.3-4.6-3.4-3.5-1.8c-2.3-1.8-2-4.7-1-3.1 2.4.3 2.6-1.2 1.5-2.8l.1-1.5 4.7 2a515.6 515.6 0 0 0 60.4 35.7c3.5 1.8 4.7 2 3.4 3.3l4.5 3.4 3.8-1.1-1.1-1.6-2.4-.3.1-1.4c3.6.3 6.2-.9 6.3-2.3l-4.7-2c-6-.6-14.3-4.4-18.8-7.8l-10.4-7c-9.2-4.1-18.2-9-26.8-14.5l-10.5-5.5-4.5-4.9 7.2 2.2 4.5 3.4 14 8.8 2.3.3-.8-4.6-3.4-3.3-3.5-1.8-5.9-2-9.3-5.4c.3-3 2.7-2.7 13.2 2.8l11.6 7 2.5-1.2c-2-4.6 1.6-4.2 6.2-.8 2.3 1.7 2.2 3.2-.3 3-3.6-.4-5 .9-2.5 1.1l2.2 3.2 2.3 1.7 21.7 2.2-1-3c-.9-3-2-4.7-10.3-7l-8-5.2 10.7 2.5v-1.4l-4.6-2-9-9.8 2.6-1.2 1.5-2.8c1.2.1 1.2.1 0 0l-1.2-.1-8.4-2.3c-3.5-1.9-3.3-3.3-1-3l2.7-2.8c.3-2.9.3-2.9 3.8-1l2.4.2c.1-1.5-6.9-5.2-11.7-5.6-6-2.1-8-5.3-3.2-4.8l16.6 4.6 4.7 2c2.5.2 2.6-1.2 1.5-2.8l-3.5-1.8-1.2-.2-2.2-3.1-2.3-1.8-5.8-3.5-2.2-1.7-9.5-4c-8.3-2.2-15.4-4.4-16.4-7.5l-6-.6-1.4 1.3h-1.2l-.2 2.8-2.4-.2c-3.7-.4-3.5-1.8-1-3l.3-3c-1.3-.1-1.1-1.6 1.4-2.8l10.8 2.6 8.3 2.3c19 4.4 37.6 10.2 55.8 17.5l3.5 1.8 5.1-2.4 3.8-1.1-1.2-.1-8.4-2.4c-2.5 1.3-6-.6-7.1-2.2l-2.3-1.7-5.7-5-2.3-1.7c-7.5-3.8-14.8-8-22-12.6l-1.1-1.6 1.3-1.3 6 .6 5-1 15.7 1.6 2.6-1.2 2.4.2 1.3-1.3-1-1.6c-1.3-.1-1.3-.1 0 0l18.1 1.9 15.3 6 4.7 1.9c0 1.5-1.4 2.8-3.8 2.6l-5.1 2.4-2.5-.2-12.2.2 1.1 1.6c6.4 1.2 13 1.3 19.5.5l3.6.3c1.3-1.3 1.5-2.8-1-3-2.2-1.7.3-3 5.1-2.4l6.2-.9-16.5-6.1-8.4-2.3-3.5-1.9-4.7-2-12-2.6-10.7-2.6c.3-3 1.5-2.8 8.7-2 10.8 2.5 18 4.7 20 7.9l3.6 1.8c1.4-2.8.4-4.4-5.6-6.5-3.3-3.2-5.6-5-3.2-4.7l12 1.2-2.2-1.7-2-4.6 12.4-3.2 7.4-.7 4.8.5 6.2-.9 14.8-1.5-7.3-.7-2.3-1.7c.2-1.5 1.5-2.8 5.1-2.4 3.8-1.1 3.8-1.1.3-3-2.2-3.2-3.4-3.3-4.9-.5l-2.5 1.3-1.3 1.3-8.5-.9.1-1.4 3.8-1.1c7.4-.8 8.7-2.1 8.8-3.6.3-2.9-1-3-7.1-2.2l-8.6.6-2.5 1.3-8.6.6-6.2.8-8.5-.8c-8.3-2.4-9.5-2.5-5.6-5l26.6 2.7-1-3.1c-5.8-3-11.7-6-17.5-9.2l9.8-.4 26.6 2.7-1-3.1-2.4-.2 2.6-1.3c3.9-2.5 8.7-2 12.2-.2l6 2 4.6 2 1.2.1-1-1.5-1-3-3.5-2c-2.5 1.3-2.4-.2-3.5-1.8l-4.7-2-2.3-1.6-4.8-.5-2.6 1.2-4.8-.5c-3.8 1.1-4.9-.5-4.6-3.4l-1.2-.1-2.6 1.2c-3.6-.4-2.3-1.7.2-1.5 2.4.3 2.5-1.2 1.3-1.3l-4.7-2-7-3.6-2.4-.3 2.9-5.6c5.6-8.3 8.3-11 10.7-10.7l3.6.3.1-1.4c-2.4-.3-3.3-3.3-2.1-3.2l13.3 1.3c1.3-1.3 2.4.3 3.5 1.9l2.3 1.7 4.2-7 1.4-1.3 1.2.1-3.6-.4-2.3-1.7v-1.4c-1.3 1.3-2.3-.3-1-1.6l2.4.2-.1 1.5.3-3-.9-4.5h-1.2c-3.5-2-3.2-4.8-.7-6l2.5-1.3c3-5.6 4.3-7 8-8l2.6-1.3-8.3-2.3-3.8 1.1-.8-4.5c.3-3 4.3-7 6.5-5.3l5.1-2.4 3.8-1c2.3 1.6 3.6.3 3.8-1.2l-3.6-1.8-2.3-1.7.7-7.4 2.8-4.1 3.9-2.6-2.5-.2-1-1.6c-1.1-1.6 1.8-7.2 3.5-13l1.5-2.7.1-1.5 1.2.1 8.4-12.4 2.6-1.3.1-1.4-2.5 1.2-2.5-.2-1-1.6c-1.3-.2-1.3-.2 0 0 1.2 0 3.8-2.6 4-5.5l2.8-2.7 1.4-2.8-2.2-3.2-4.8-.5.3-3-1-3h-1.2l-6.5 5.2c-5 1-6-.7-4.6-3.5l1.4-2.8 1.4-1.3 3.2-8.6-.8-6-1.3 1.4-3.5-1.8c-1-3-2.2-3.2-6-.6-1.5 2.8-1.5 2.8-2.6 1.2l.5-5.9c.5-5.8.7-7.3-4.2-7.8-4.7-2-5.9-2-5.6-5l.5-5.9-4.4-6.3c-1-3-1-3 3-5.6 3.7-1.1 3.9-2.6 1.4-2.8l-4.5-3.5a82.6 82.6 0 0 1 19.6-15.7l6.6-5.3-12.5 3.2-5 1-1.4 2.8-4.2 5.5c-2.6 2.7-2.6 2.7-5 1-1-1.6-3.4-1.9-3.7 1-.1 1.5-1.5 2.9-3.9 2.6l-3.5-1.8c-2.4-.2-2.1-3.2.3-3l5-2.4c4-4 4.2-5.5.6-5.8-2.4-.3-5.8-3.6-3.4-3.3l-2.4-.3-2.3-1.7-3.5-1.8-3.6-.4v-1.4c.2-1.5.3-3-3.3-3.3l-3.5-1.9-4.7-2-9.3-5.3-1-1.6-2.4-1.7-1-1.6v-1.5c2.8-2.6 4-2.5 3.8-1l1.1 1.5c1.4-1.3 7.3.8 7.1 2.2l6 2.1 6 .6.1-1.4-3.5-1.9-2.3-1.7 3.8-1c2.4.2 2.4.2 1.3-1.4l1.5-2.8.3-3 6.1-.8 4.4 6.3 3.5 1.9 7.2.7 7.1 2.2 4.9.5.2-3-3.3-3.2-4.8-2-2.4-.2-4.5-3.5c1.3-1.3-5.7-5-10.5-5.5l-7-3.6-3.4-3.3-4.7-2-2.5-.2-4.3-6.4 2.6-1.2c2.4.3 4-4 4-4l-4.9-.5-8.6.6-4.7-2 .3-2.9 1.4-2.8 11.3-3.3c1.4-1.3 1.4-1.3-1-1.6-2.4-1.7-2.2-3.1.2-2.9l13.4-.1 5-1 10.1-4.9-2.4-.2-2.5 1.2-.1 1.5-14.5-1.5c-9.6-2.4-9.6-2.4-8.3-3.8l.2-1.5-7.2-2.2a526 526 0 0 1-40.3-13l3.8-1c3.6.4 3.7-1.1.2-3l-7.4.8-4 4c-2.8 4.2-5.2 4-5 2.5l-41-7.1-19-5c-2.2-3.1-19.4-1.9-25.7.4L967 77l-1.5 2.8c-2.6 1.2-7.5 2.2-8.6.6l-3.6-.3-6.2.8-6-.6-7.4.7-6.2.9-5 2.4c-2.5-.2-3.8 1.1-4 2.6-1.3 1.3-1.4 2.8-3.9 2.5l-3.7 1.1h-1.2l-1.5 2.7-3.7 1.1h-1.2l-12.6 4.5-5.1 2.5c-2.6 1.2-3.8 1-4 4l-5.4 5.4-2.5 1.2-2.7 2.7-3.9 2.5-4 4-2.5 1.3-1.5 2.8-2.7 2.7-1.6 4.3-6.6 6.7c1 1.6-1.6 4.2-4.2 5.5-2.8 4.1-4 4-.7 8.8 1 3 1 3-2 8.6l-4.8 12.8c-.5 5.9-.6 7.4-2.9 5.7l-.3 2.9c2.3 1.7 2 4.6.5 8.9l-.4 4.4c1 3-.4 4.4-3 5.6-2.8 0-5.6.2-8.5.6l-2-6-1.1-.2.2-3c1.5-2.8 2.7-2.6 3.8-1 2.3 1.7 2.4.2 3-7.1l-.3-10.4-.1 1.5-1.2-.2-4.3-6.3-1-3c1.6-4.3.4-4.5-3.5-1.9-2.8 4.2-4 4-7.4.7-3.4-3.3-4.6-3.4-3.1-6.2l.6-7.3 1.9-7.2c5.6-8.3 4.4-8.4 3.2-8.6l-2.5-.2 4-4 2.8-4.2c-2.4-.2-3.7 1.1-5.2 4l-2.4-.3c-2.2-3.2-4.6-3.4-4.8-.5l-4.3 7-2.8 4c-.2 3-1.5 2.9-2.5 1.3-1.1-1.6-4.9-.5-5.1 2.5l2.3 1.7 3.3 3.3c1 3 1 3-1.4 2.8l-1.4 1.3-1.4 2.8c-1.2-.1-2.4-.2-2.7 2.7-.5 5.9-5.5 6.8-8.8 3.5l-3.5-1.8-6-.6c-3.7-.4-5-.5-7-5.1l-3.2-4.8-10-11.4c-2.2-3.1-2.2-3.1-2.4-.2l.8 4.5c5.7 5 13.3 16.1 12.9 20.5l1 3 1 1.7 2.4.2 3.1 6.2-3.7 1.1c-10.2 0-20.4.4-30.6 1.4l19.3 2-.2 2.9-4.9-.5c-1.7 5.7-1.7 5.7-4.1 5.5l-2.5 1.2-3.5-1.8-13.3-1.4-7.4.7-15.7-1.6-3.8 1.1-2.5 1.3-3.8 1-4.8-.4c-7-3.7-9.5-4-10.8-2.6l-13.5 1.6-4.8-2-29.8-7.4a407 407 0 0 1-31.3-4.7c-13.3-1.3-13.3-1.3-11.8-4.1l-3.5-1.9-6.2.9c-.1 1.5-2.7 2.7-3.8 1l1.4-1.3V167l-11.9-2.7a397 397 0 0 1-51.3-12.6l-15.6-3 3.5 1.8 3.6.3 2.3 1.7 6 2.1-.3 3-19-6.4c-17.8-2-35.4-5.8-52.7-11.3l-11.6-7 2.7-2.7-14.1-5.9c-9.6-2.4-9.7-1-14.3-4.4l-5.8-3.5-7.1-2.2-10.9-1.1 3.5 1.8 4.6 3.4 4.8.5 6 2 9.4 4 5.9 2 3.6.4c6 .7 7.1 2.2 5.7 5l-3.8 1.1-3.6-.3-4.6-3.4-2.4-.3-3.8 1.1-8-5.2-1.3-.2c-1.2 0-1-1.5 0 0l-8.4-.8-9.6-2.5-7.1-2.2-8.2-3.8-7.1-2.2-4.6-3.4-7.1-2.2-4.9-.5-12.9-5.7c-15.3-6.3-30.6-12.8-45.9-19.4A1535 1535 0 0 0 230.2 63l-9.1-6.9-8.2-3.8-3.8 1.1-8-5.2-5.9-3.6-4.6-3.4c-2.4-.2-4.5-3.4-7.8-8.2l-4.4-4.9c-2.5-.2-2.5-.2-1.5 2.9l-.5 5.8c-2.4-.2-2.4-.2-2.7 2.7l-2.5 1.2-1.1-1.6-3.5-1.8c-3.6-.4-4.8-.5-7-3.7l-2.3-1.7-6.8-6.6c-2.5 1.2-4.7-2-10-11.3l-2.2-1.7-.4 4.4 3.8 12.2-2.3-1.7c-2.3-1.8-3.5-1.9-3.7 1l.8 4.6c1 1.6-1.5 2.8-2.6 1.2l-2.4-.3-9.5-2.4-2.3-1.7-5.7-5-2.3-1.7c-2.5 1.2-4.7-2-4.6-3.4l-1.2-.2-.2 3-1.5 2.8-3.5-1.9-1-1.6-2.4-1.7c-1-3-4.5-3.4-3.5-1.8v1.5l-10.2-10c-1-3-2-4.6-3.4-3.2l-4.7-2c-5.6-5-5.6-5-7-3.6l1 3c5 4.6 9.5 10 13.2 16.1l2.3 1.7 3.4 3.3 1 1.6 3.4 3.3c3.5 1.9 6.8 6.6 6.7 8l3.3 3.4 3.3 4.7 2.3 1.8 5.8 3.5 18.3 13.7c5.8 3.5 5.8 3.5 5.5 6.5l-.1 1.4 1 1.6c0 1.5-1.3 1.3-5.7-3.5l-16.7-4.7-12.7-8.7 2.2 3.2c2.2 3.2 4.3 6.4 10.1 10l1.7 9c2.3 1.7 3.4 3.2 1.8 7.5l-1.6 4.3-2.2-3.2.1-1.5-2.1-3.1-3.5-1.9-2.2-3.1-3.1-6.3-1-3L99 57l-1-3c.3-3 .3-3-2-4.6l-3.6-.4 1 1.6 1 3-.2 3 1 1.6 1.7 9-2.3-1.7c-1-1.6-2.3-1.7-3.7 1l2 4.7c1 1.6 3.1 6.2 1.8 7.6L92.4 77c-2.3-1.7-5 1-4.3 7l-1.3 1.3-4.3-6.4-2.3-1.7-.4 4.4.7 6-5 1-5.9-2.1c-2.3-1.7-3.4-3.3-9.4-4l-3.8 1.2-1.2-.1c1.4-1.4.2-1.5-3.3-3.3l-3.8 1c-.2 3-5 2.5-8.6.7l-6-.7 1 1.6 4.6 3.5 3.5 1.8 1.1 1.6 3.5 1.8 2 6.1-.2 1.5c-.2 3-8.5-.9-8.3-2.3L33 85.8l-1-3-1-1.6-4.6-3.4-.5 5.8 1 3.1-9.8-1L8 80.3 3.4 77 0 73.6l1 3 1 1.7L4.3 80l4.4 6.3 3.5 1.9 6.7 6.6 2.3 1.7 4.5 4.8 3.3 3.3-3.5-1.8c-3.3-3.3-7-3.7-7.1-2.2l1 1.6v1.5l12.5 10.1c3.5 1.8 4.6 3.4 4.2 7.8l.7 6c-2.4-.2-.4 4.4 4.2 7.8 2.3 1.7 4.2 7.8 5 12.3l.9 4.6c1.2 0 2.3 1.7.8 4.5l1 3a37.5 37.5 0 0 1 9.4 17.3c.9 4.5 3 7.6 5.6 6.4l.5-5.8-1-3c1.4-1.4 7.3.6 10.8 2.5 2.3 1.7 2.1 3.2-.3 3l-3.7 1-.3 3 1.1 1.5c1.3-1.3 8.2 3.8 9.3 5.4l4.6 3.4 3.2 4.8 2.3 1.7 1 1.6-1.1-.1 1 1.5v1.5l-1.5 2.8c-.2 1.5-.3 3 2.1 3.2l2 6.1 5.2 9.4 1 3-1.3 1.4-2.6 1.2-3.1-6.2-4.2-7.8-3.4-3.3-1-1.6-4.7-3.4-1.3 1.3-.1 1.5-2.2-3.2-2.3-1.7-1-1.6v-1.5c-1.1 0-3.2-4.7-3-7.7l-2-4.6-1-1.6c1.3-1.3-2-6-3.2-6.2l-.2 3h1.2l1 3-.3 3 2 4.7 3.2 6.2 5 12.3 1.9 6.1 1 1.6 1 3 5.4 8 1.3.1c1.3-1.3 4.8.5 7 3.7l5.6 5 1 3-.4 4.5 4.3 6.3 1 3 3.2 4.8c2 4.7 6.6 8 5.7 5l.2-3h-1.2l-4.3-6.4-3-7.7-2-4.6-1-3h1.2l7 3.7v1.5l7 3.7 13.8 8.8 3.5 1.8 2.1 3.2 6 .6c2.4 1.7 2.4 1.7 1 3l-4 4 11.5 8.6 8.2 3.8 6.9 5.1 9.4 4c-.3 2.9 3.2 4.7 7.8 8.1l10.3 8.4-3.8 1.1h-1.2c3.5 1.7 5.8 3.5 6.8 6.5l1 1.6 2.3 1.7 3.7.4 6.6 8 6.5 9.6c-.3 2.9 2 4.6 5.6 5 3.7.3 4.8 2 2.2 3.1-1.3 1.4-.2 3 1 3l2.4.3c-.3 3 1.9 6.1 4.3 6.4l2.3 1.7 3.1 6.2 1 3 1 1.7 2.5.2 4.7 2c2.2 3.1 9.3 5.3 9.4 3.9l2.4.2 2.3 1.7 1.1 1.6-.4 4.4-1.3 1.4c-1.4 1.3.8 4.5 3.2 4.7l4.4 6.4h1.2l2.1 3.3c4.7 2.8 9.3 5.7 14 8.8l11.5 7 2.2 3.2 3.3 3.3 2.3 1.7-15.4-4.5-16.3-9-8.2-3.8a42.7 42.7 0 0 1-10.6-5.5l-10.3-7-8.1-5.2-3.5-1.9-4.6-3.4-3.4-3.3-6.8-5.1a167 167 0 0 0-25.1-20.3l-5.7-5-9-8.3-5.6-6.5-2.3-1.7-4.4-4.9c-2.3-1.7-5.8-3.5-6.8-6.6l-16.7-18-3.2-4.7-4.5-4.9-5.7-5-3.3-3.3-1.1-1.6-2.4-.2-1.5 2.8 2.3 1.7c2.3 3 4.4 6.3 6.5 9.5l1.9 6.1c-.1 1.5.8 4.6 3.2 4.8l2.3 1.7 3.4 3.3 1 3 5.4 8 2.3 1.7 1.2.1 2.3 1.7 2.1 3.2 4.5 5 4.6 3.3 4.4 5 2.4.2 9.2 6.8 8 6.7 2.3 1.7 4.4 5 5.6 6.4 1 1.6 3.5 1.8 2.2 3.2 4.5 4.9a47 47 0 0 0 9 8.3l11.3 10 2.3 1.7 5.8 3.5 4.6 3.5c1 1.5 9.2 6.8 15.2 7.4l6 2 2 3.3 2.5.2c7.8 4.7 16.1 8 24.8 10l8.3 2.2 9.5 2.5c2.2 3.1 7 5.1 9.3 5.3l6 2.1 15.2 7.5 2.4.2-2.3-1.7-3.5-1.8.1-1.5c1.4-1.3 5-1 9.6 2.5l1 1.6c-2.6 2.6-1.4 2.8 2 4.6 8.4 2.3 10.7 4 13.4 1.3l10.9 1.1 3.5 1.9 1 1.6 3.5 1.8 10.8 2.6 8.5.8c3.7-1 8.4.9 7.1 2.2-2.7 2.7-11.3 3.3-11 .4l.1-1.5-2.5 1.2-1.4 1.4v1.4c1 1.6 1 1.6-3.8 1.1l-13.3-1.3-4.8-2-9.5-2.4c-15.7-1.6-18.3-.4-19.6 1l-1.5 2.8 4.7 2 6 .5c3.8-1 24.1 4 26.4 5.7l21.5 5.1L415 494l4.8.5 6 2 3.5 1.9c1.3-1.3 4.7 2 4.7 2l-6.3 2.3c-3.7-.4-10 2-10 3.4l5.8 2c24.3 1 30.3 3.1 30.1 4.6 0 1.5 5.8 3.5 13.2 2.8l9.7 1c11.6 2 23.2 3.7 35 5 4.8.5 4.6 2 4.5 3.4l1.2.1 8.7-2-.2 2.9 2.3 1.7 12 1.2 4.8 2c4 1.2 7.9 2.6 11.8 4.1l2.3 1.8 3.5 1.8 4.7 2-.1 1.4 1.2.1c-1-1.6 1.5-2.8 2.5-1.2l1.6-4.3 4.9.5 9.3 5.4 9.4 4c4.5 1 8.9 3 12.9 5.7l3.5 1.8c1 1.6 5.8 3.5 15.5 4.5a134 134 0 0 1 22.4 8.2l8.2 3.8 3.5 1.8 2.3 1.7 4.9.5 4.7 2 9.6 1Zm-120.6-44.8.1-1.4 4.9.5-.2 1.4-4.8-.5ZM430.9 506l1.4-1.4 3.9-2.5 7.3-.8H457l2.3 1.6 2.4.3-5.1 2.4-5 1-2.4-.3-2.5 1.3-15.8-1.6Zm-34.2-27.1 1.3-1.4 1.1 1.6-2.4-.2Zm99.1 10c-1-1.6.2-1.5 5-1l8.6-.6 5-1 2.3 1.8-1.4 1.3-7.4.7-6.1.9-6-2.1Zm29.2 1.5 3.7-1.1v1.4l-5-.4h1.3ZM351 458l4.8.4-3.8 1.1-1-1.5Zm295.2 27-1.2-.2 8.7-2c3.7.3 3.7.3 2.3 1.6l-9.8.5Zm138.6 19.9h1.2l-.2 1.6c-1.2-.2-2.4-.3-1-1.6Zm-127.6-20.3 1.4-1.4 1 1.6-2.4-.2Zm350.6 50.3-4.6-3.5 1.2.2 4.8 2c2.4.2 2.1 3.1-.3 2.9l-1-1.6Zm39.8 5.5 1.3-1.4 1.1 1.6-2.4-.2Zm-27.6-5.8.3-3 2.4.3.8 4.6-3.5-1.9Zm-48-9.3-2.2-1.7c-2.5-.2-7-5.1-5.6-6.5l-.1 1.5 2.4.3c1.3-1.4 14.1 5.8 15 8.9l-3.7 1-5.8-3.5Zm43.5 5.9c-1.3-.1-1.3-.1 0 0Zm-267-43.3 13.6-3 12.2-.3 7.4-.7-8.8 3.5-1.3-.1c0 1.5-3.8 2.5-11 1.8l-6.1-.6-3.8 1.1c-3.6-.4-3.6-.4-2.3-1.7Zm47 6.2 5-1c2.3.3 2.3.3 1 1.6l-7.4.8 1.3-1.4Zm-13.2-2.8c3.9-2.5 8.7-2 6.1-.8l-7.5 2.2c-1.2-.2-1-1.6 1.4-1.4ZM957 515l1.3-1.3 2.3 1.7-3.6-.4Zm21-2.3 1.1.2v1.4l-1.2-1.6ZM791.5 482l4.9.5-3.8 1.1-1-1.6Zm164.2 19.6-2.3-1.7-3.5-1.8c-1-3 1.5-2.8 4.9.5l3.5 1.8 1 1.6v1.4l-3.6-1.8Zm77.5 6.4 2.4.2 6 2.1-8.4-2.3Zm9.8-.5.2-1.5 1 1.6-1.2-.1Zm-15.7-1.6-2.3-1.7 4.9.5-2.6 1.2Zm12.2-.2-1-3-2.1-3.3 9.7 1 2.1 3.2c1.1 1.6 0 1.5-1.3 1.3l-3.8 1.1-3.6-.3Zm18.2 1.8 1.3-1.3 1 1.6-2.3-.3Zm-8.4-2.3 3.6.4c1.3 0 1.1 1.5-1.3 1.3l-2.3-1.7Zm-38.4-6.9-3.5-1.8c.1-1.5 8.5.9 10.6 4h-1.2l-6-2.2Zm19.6-1 2.4.3-1.3 1.4-1.1-1.6Zm-3.5-1.8 2.4.3-.1 1.4-2.4-.2v-1.5Zm-22.7-5.2v-1.5l3.7.4-.1 1.4-3.6-.3Zm-9.5-4 2.5.3-.2 1.5-2.3-1.7Zm50.1-.8-8.2-3.8-4.6-3.4c-2.4-.2-2.3-1.7-1-1.6l6 .6 9.3 5.4c6 .6 13 4.3 13 5.8l-14.5-3Zm-21.4-6.6 2.6-1.2 2.3 1.7-2.6 1.2-2.3-1.7Zm-3.2-4.7 2.5-1.3 3.8-1 2.5-1.3c2.5.3 2.3 1.7 2.2 3.2l-7.5 2.2-3.5-1.8Zm-784.4-124-1.1-1.6c.1-1.4-1-3-3.4-3.2l-3.5-1.9-2.3-1.7-4.3-6.3c1.3-1.4 5-1 4.7 2l3.6.3 2.3 1.7 3.4 3.3 4.2 7.8c-.3 3-2.7 2.7-3.6-.4ZM1048.5 474c-1.1-1.6-1.1-1.6 0 0l2.4.2 1 1.6-3.4-1.8Zm50-14.2 3.6.4-3.8 1 .2-1.4Zm31.5-11.6 2.3 1.7-2.5-.2.2-1.5Zm11-.3 3.6.3-3.8 1.1.2-1.4Zm-15.6-3.1 5-1 1 1.6-6-.6Zm-4.9-.5 2.6-1.2 2.3 1.7-4.9-.5Zm-30.3-16.4.2-1.4 1 1.6-1.2-.2Zm43.6-10.3.2-1.5 8.4.9c1.1 1.6 0 1.4-1.3 1.3l-2.5 1.2-2.5-.2-2.3-1.7Zm-9.6-1-1.1-1.6 4.8.5 2.3 1.7-6-.6Zm-938.7-175 .4-4.3 1 3-1.4 1.4Zm-75.6-15c.2-1.4 1.4-1.3 2.3 1.7l-2.3-1.7Zm4.4-8.4-2.4-.2c-3.7 1-9.4-4-11.4-8.6l-1-3 3.6.3 6.9 5.2 1 1.6h1.3l3.4 3.4c2.1 3.1 2 4.6-1.4 1.3Zm1027.2 152.9 1.4-1.4 5-1c3.6.4 4.8.5 3.4 1.9-2.6 2.7-4 4-6.3 2.3l-3.5-1.8Zm15-45.8 2.4.2-2.6 1.3.2-1.5Zm1.6-4.3 2.8-4.1c2.5-1.3 3.3 3.3 2 4.6-2.7 2.7-5 2.4-4.8-.5Zm5.6-8.3 2.4.3-2.7 2.6.3-2.9Zm-1001-160.5 1.4-1.4-.3 3-1-1.6Zm475.7 42.3-5.9-2.1-4.6-3.4-3.6-.4c-1.3 1.3-10.8-2.6-12-2.7l1.4-1.3 16.9 1.7c9.6 2.6 19 5.5 28.5 8.8l-3.7 1-17-1.6Zm-38-11.3-2.3-1.7c1.3-1.3 12 1.2 12 2.7l-6.2.9-3.5-1.9ZM1163 264l2-8.7c1.2.1 1.2.1 0 0l1 1.6c1.3.1 2.3 1.7 1 3l-1.5 2.9c-1.8 7.2-3.3 10-2.5 1.2ZM458.6 158.5l-13-4.3-19.2-4.9a63.2 63.2 0 0 1-19-4.8l-5.8-3.6-6-2-5.7-3.6 14.3 3 9.6 2.4 25 7 10.7 2.5a66 66 0 0 1 16.7 4.7l6 2 2.2 1.7v1.5l-15.8-1.6Zm116 11.8.2-1.5 1 1.6-1.1-.1Zm-24-4c-4.7-1.9-1-1.5 5-1l-5 1Zm-6-.6 1.3-1.3 1 1.6-2.3-.3ZM754.7 190c-3.4-3.3-3.3-4.8.4-4.4 2.4.2 5.6 5 5.5 6.5l-5.9-2.1Zm-373.2-57c-1-1.6.1-1.5 1.4-1.4 1.3-1.3 2.4.3 2.2 1.7l-3.6-.3ZM129 91l-2.2-3.1-1-3.1 4.8 2 7 3.6-.3 3-2.4-.3c-1.4 2.8-5 1-5.9-2Zm639.1 99 .3-3 4.6 3.5c-.2 1.4-1.5 2.8-2.6 1.2l-2.3-1.7Zm396.2 59.3 1.2.2-1.3 1.3v-1.5ZM418 133.7l1.4-1.3-.3 2.9-1-1.6Zm-280.6-55-1.2-.1 1.4-2.9 1.1 1.6-.2 3-1.1-1.6Zm987.3 148.8.1-1.5 1.1 1.6-1.2-.1Zm-277.8-45.9 1.5-2.8c1.3-1.3 1.3-1.3 1 1.6l1.1 1.6c1.1 1.6-.2 2.9-2.6 2.7l-1-3.1Zm-30.2-3 1.4-2.9-.2 3-1.2-.2Zm313.2 45c1.3-1.4 2.4.2 1 1.6l-2.3-.3 1.3-1.3ZM1113 207c-1.4 2.8-3.7 1-9.4-4l-6.9-5c-1.2-.2-3.3-3.3-2-4.7l2.5-1.2 3.7.4 7.1 2.2 4.7 2c1 3 10.5 5.4 13 5.7l2.3.2-1.4 2.8c-3.9 2.6-11.3 3.3-12.3 1.7l-1.3-.1Zm-249-40c-2.1-3.2-2.1-3.2-.7-6 1.4-1.3 1.5-2.8-3.4-3.3-3.5-1.8-4.5-3.4-1.7-7.6a45.8 45.8 0 0 1 14-20.7l10.5-9.3 2.6-1.2 1.3-1.4 3.9-2.5c4.9-3 10-5.5 15.2-7.3l10-2 2.4.3 5-2.5 5-1 2.5.3 16-1.4c8.7-2 14.7-1.4 29.2 0l17 1.8c4.9-1 8.7-2.1 11-.4 3.4 1.8 3.4 1.8 2 4.6l-36.3-3.6-29.4 1.4-1.5 2.8 3.7.4 11-.4c-.1 1.5-2.7 2.7-10 3.5l-9.9.4c-8.4 4.3-16.9 8.4-25.4 12.2l-7.8 5.2c-6 5-12.1 9.7-18.3 14.4-1-3-2.3-1.7-2.7 2.7-.4 4.3-.5 5.8-3 5.6l-1.4 2.8-2.5 1.2-1.6 4.3-4.5 9.9-2.2-3.2Zm260.7 32.3.2-3c1.5-2.7 4-2.5 4.9.6l-.3 2.9-4.8-.5Zm-4.5-4.9c-1-1.6.1-1.4 1.4-1.3l-.2 1.4-1.3 1.4.1-1.5Zm-206.7-35.7.3-3 1.3-1.3-1.2-.1c-1.3 1.3-1.3 1.3 0 0l3.9-2.6 3.7-1 1.1 1.5 1 3-2.6 1.3-3.8 2.6-3.7-.4Zm-772.3-124-1-3.1 4.8 2 .8 4.4-4.6-3.4Zm765.4 118.9h1.3l-.2 1.6-1-1.6Zm2.7-2.7 2.7-2.7 12.8-7.6c2.5.3 1.1 1.6-.2 3l-3.9 2.5-7.6 3.7-.2 1.4c0 1.5-2.6 2.7-3.6-.3Zm20.6 2 1.4-2.7c.2-1.5 1.5-2.9 4-2.6l8.1 3.8-1.3 1.3-11.1 1.8-1.1-1.5Zm185.8 23.3.1-1.4 2.3 1.7-2.4-.3Zm-170.6-30.6 9.7 1-6.2.9-3.5-1.9Zm150.2-29 7.6-3.7c1.2 0 1 1.5-1.6 4.2l-5 2.5-2.5-.3 1.5-2.8ZM608.2 557.8l-7-3.6-3.6-.4 1.2.1 2.3 1.7 4.5 3.4c3.7.4 3.7.4 2.6-1.2Zm-25.4-2.6-1-1.5-1.3-.2 1 1.6 1.3.1Zm-6.5-9.5c1.3-1.3 1.2.1 0 0L574 544l-2.4-.2-.1 1.4 4.8.5Zm118 17.9-1.2-.1 1 1.6.2-1.5Zm-250.6-50.5.2-1.5c-1.1-1.6-4.9-.5-3.8 1.1l3.6.4Zm254 39 .1-1.5h-1.2v1.4l1.1.1Zm-42-7.2.3-4.4c-1.2-.1-5 2.4-4 4l3.7.4Zm15.7 1.6 1.3-1.4c.1-1.4-2.2-3.1-3.5-1.8l-3.6-.4c-2.4-.2-3.8 1.1-1.4 1.4l4.8 2 2.4.2Zm52 5.3 2.4.2-6-.6-2.6 1.2 2.4.3 3.8-1.1Zm-319-48.6c-.2 1.4-1.4 1.3 0 0Zm-3.7-.4 3.8-1-3.7-.5c-2.3-1.7-6-.6-5 1l5 .5Zm-13.2-2.8-1.2-.1 1.1 1.6.1-1.5Zm227.8 32-13.2-2.9 6 2.1 1 1.6 8.5.8-2.3-1.7Zm149.3 22.5c1 1.5 1 1.5 0 0Zm-187.4-33.8 5-1 2.6-1.2-1.3-.1-8.5.6c-1.3-.1-1.4 1.3 1 1.6h1.2Zm529.9 78.8-2.3-1.7-10.7-2.6 2.3 1.7 2.4.3c2.3 1.7 5.8 3.5 8.3 2.3Zm1.9-7.2-1.1-1.6-4.7-2c-2.6 1.3-2.6 1.3-1.5 2.9l7.3.7ZM731.2 532l-1.1-1.6-5 1 6 .6Zm-137.8-28.8 6.2-.8 4.8.5 7.4-.8 2.5-1.2 6 .6 3.8-1 13.6-1.7 3.6.4 11.2-1.8c3.7-1.1 3.8-2.6-1-3l-4.8-.6c-1.1-1.6-3.7-.3-7.4.8l-5 1-15.7-1.7-7.4.8-2.4-.3-3.8 1.1-5 1-3.7 1.1-5 2.4-7.6 2.2 9.7 1Zm450.3 67.8-2.3-1.7c-2.3-1.7-2.4-.2-.1 1.5l2.4.2Zm-325.9-53.7 2.4.2-2.3-1.7-3.7 1.1-1.3 1.4 5-1Zm-25.4-2.6 1.4-1.3 2.4.2 1.3-1.3-2.4-.3-1-1.5-9.6-2.5-3.5-1.8c-1-3-4.7-2-5 1l-.1 1.4 2.3 1.7-2.4-.2-1.4 1.3 2.4.3 6 2 9.6 1Zm-2.3-1.7 2.5.3-3.8 1 1.3-1.3Zm13.2 2.8 3.8-1-2.3-1.8-1.1-1.6h-1.2l-1.4 1.3c-1.2-.2-2.5 1.2-1.4 2.8l3.6.3Zm-33.6-6.3-2.4-.3-.1 1.5 2.5-1.2Zm50.8 5.1 2.5-1.2-6-.6c-1.3 1.3 1 1.6 3.5 1.8Zm392 51.6c3.6.3 3.7-1.1 2.5-1.3l-5 1c-1.2-.1-5.9-2-4.6-3.4l-3.5-1.8-3.7 1c-1.4 1.4-1.4 1.4 4.6 3.5l9.6 1Zm-367.2-56.5c2.7-2.6.5-5.8-2-4.6l-1.7 5.7c1 1.6 3.6.4 3.7-1Zm278 43-1-1.6c-2.5-.2-2.5-.2-1.4 1.3l2.5.3ZM243.6 430.8c2.6-1.2 1.5-2.8-1-3L240 429l3.5 1.8Zm510.6 75.4-2.4-.2 1.1 1.5 1.4-1.3Zm-534.3-83.7-3.5-1.8v1.4l3.4 1.9 2.4.2-2.3-1.7Zm475.5 73.3 7.4-.7c3.6.3 0-1.5-4.6-3.4-4.9-.5-4.9-.5-7.5 2.2-2.6 1.2-3.8 1-1.4 1.3l6 .6Zm403.1 63 .7-7.3-2.6 1.2-.1 1.5 1 1.6 1 3ZM236.8 424.2l-1.2-.1-1.1-1.6-1.2-.1-1.1-1.6-4.7-2-2.4-.2c-.2 1.5 1 3 2.2 1.7l2.3 1.7 1.1 1.6 6 .6Zm3.6.4-1-1.6-1.3-.1 1 1.6h1.3Zm872.8 132.8 2.5-1.3 3.8-1c.3-3-2.2-3.2-4.7-2l-6.2.8-.1 1.5 2.3 1.7 2.4.3Zm-403.3-61.6 1.4-1.3-2.5-.3c-1.3 1.4 1.1 1.6 1.1 1.6ZM692 491c.3-2.9-1-3-2.3-1.7l-3.6-.3-5 1 11 1Zm398.3 62.6.2-1.5-2.3-1.7-.1 1.5 2.3 1.7ZM213 417.4l-1.1-1.6-1.2-.1 2.3 1.7Zm505.6 76.3-2.4-.2c-2.4-.3-2.4-.3-.1 1.5l2.5-1.3Zm-509-79.6c.2-3-7.8-8.2-8-5.3l2 3.2 2.4 1.7 3.6.4ZM707 486.7c6.1-.9 6.1-.9 5-2.5l-3.6-.4-3.7 1.1c-1.1-1.5-5 1-5 1l7.3.8Zm396 60.8c.2-3-4.5-5-8.1-5.3-3.6-.4-1.5 2.8 2.2 3.2l5.9 2Zm-186.7-27.8-1-1.6-1.4 1.3 2.4.3Zm217 29.4.3-3 1.5-2.8c1.3-1.3 0-1.4-7.2-2.2-12-1.2-15.6-3-23.8-6.8l-12-2.7 2.3 1.7 4.5 4.9 2.3 1.7 8.5.9 11.7 5.6 8.3 2.3c1 3 2.2 3.2 3.6.4Zm-917-143.2 2.4.2c3.5 1.9 1.3-1.3-2.2-3.1l-7-2.2-3.6-1.9.1-1.4-7-2.2-4.8-2-3.4-3.3-11.4-8.5-1.1-1.6a44.6 44.6 0 0 0-15.5-17.8l-5.7-5 6.5 9.5 3.4 3.3 2.1 3.1 4.6 3.5 1.1 1.6 12.2 14.5 5.6 5 5.8 3.5 7.1 2.2c4.6 3.5 7 3.7 10.8 2.6Zm485.1 74.3 10-2c3.6.4 5-2.4 1.4-2.8l-2.4-.2-3.8 1-7.2-.7-1.5 2.8c-.1 1.5 1 3.1 3.5 1.9Zm380.6 56.3 2.5-1.2-1-1.6-2.3-1.7-2.6 1.2-1.3 1.3-2.6 1.2 7.3.8Zm-9.7-1-3.4-3.3-1.3 1.3 2.3 1.8 2.4.2Zm73.7-5.8-1-1.6-5.9-3.6-7.1-2.2-7-3.6-7.1-2.2-7.3-.8-6-2c-2.5 1.2-2.6 2.6 1 3 13.8 3 27.3 7.3 40.4 13Zm12.5-3.2-2.2-3.2-.1 1.5 2.3 1.7Zm2.5-1.2-1.2-.2-.1 1.5 1.3-1.3Zm-71-11.7c2.6-1.2 1.4-1.3-1-1.5l-2.6 1.2 3.7.3Zm11.3-16.6c0-1.4-1-3-2.3-1.7l1 1.6 1.3.1Zm-8.4-2.3-2.3-1.7-9.7-1 6 2.1 6 .6ZM149.5 347.4l-1-1.6-.2 1.5 1.2.1Zm-4.3-6.4c-1-3-2.2-3.1-2.3-1.7-.2 1.5-.3 3 2.1 3.2l.2-1.5Zm943.6 146-1-1.7-1.4 1.4 1 1.6 1.4-1.4ZM141.7 339.1l-4.4-6.3c-3.5-1.9-3.5-1.9-1.3 1.3l2 4.6 3.7.4Zm-7.9-8.2.2-1.4-1.4 1.3 1.2.1Zm-3.2-4.7-1-1.6-1.3-.1c-.1 1.4 1 3 2.3 1.7Zm959.2 148.9c-1.2-.1-1.2-.1 0 0Zm97.5-27c.1-1.5.3-3-2.2-3.3l-1.3 1.4c-.1 1.5 2.2 3.2 3.5 1.8Zm-5.8-3.6-2.4-.3c-1.2 0-1.2 0 0 0l2.3 1.7.1-1.4ZM115.5 276l-1.2-1.6v1.4H113l2.4.2ZM1148 393.9l1.5-2.8-2.5-.3-1-1.5-3.7-.4c-1.3 1.3-.4 4.4.8 4.5l1.1 1.6c1.1 1.6 1.1 1.6 3.8-1.1Zm30-78.3h-1.3l-.1 1.4 1.3-1.4Zm4.9-57 1.3-1.4-1.4 2.8v-1.5ZM824.8 197c.3-3 .3-3-1-1.6l-1.5 2.8c1 3 2.3 1.7 2.5-1.2Zm-338.3-50.5-3.5-1.9-1.4 1.4 4.9.5Zm-8.4-2.4H477l-2.3-1.8-1.3 1.3 4.8.5ZM645.4 170l-1-1.6-1.4 1.3 2.4.3Zm-6-.7c2.5-1.2 1.3-1.3-1.1-1.5l-4.8-.5 5.9 2Zm-171-26.1-1-1.6-.2 1.4 1.2.2Zm162.8 22.4.1-1.5-1.2-.1 1 1.6Zm-8.4-2.4-2.1-3.1-7.3-.8 1.1 1.6 2.3 1.7 6 .6Zm567.3 84.1V246l-1.4 2.8 1.3-1.3Zm-597-93 .1-1.5-1.3 1.4 1.2.1Zm-40.6-10 3.8-1.1 1.2.1-11.7-5.6-1.5 2.8 1 1.6 2.5.2 2.3 1.7 2.4.3Zm-18.8-7.8-9.4-4-25.3-4 14.2 4.4a381 381 0 0 1 20.5 3.6Zm648.8 99.7.2-3-2.5 1.3-.2 1.4 2.5.3ZM454.4 122.6l.1-1.4-2.5 1.2c-1.3-.2-1.3-.2 0 0l2.4.2ZM831.2 180l.1-1.5h-1.2l-.1 1.4 1.2.1Zm-343-52.5-2.4-1.7c-3.6-.4-3.7 1.1-.1 1.5l2.4.2Zm-50.5-9.5-6-2.1c-2.5 1.2-1.4 2.8 2.2 3.2l3.8-1.1Zm755 112 6.6-5.3c1.5-2.8.3-3-1-1.6l-4 2.6-2.5 1.2c-2.8 4.1-1.6 4.3 1 3Zm-49.8-58.3-3.6-.4-.1 1.5 1 1.6 2.7-2.7Zm-10.5-5.5-3.6-.4 1 1.6 2.6-1.2ZM81.7 3.6l-1-1.6-.2 1.4 1.2.2Zm742 107.7 1.5-2.8c.1-1.5-1.1-1.6-2.6 1.2-2.8 4.1-2.9 5.6 1.1 1.6Zm305.6 48.7.1-1.5-2.5 1.2 2.4.3Zm-278-72.5c1.4-1.4.3-3-1-1.6l-.1 1.5h1.2Zm52.5.8V87l-1.2 1.3-.2 1.5 1.4-1.4Zm3.6.4-1-1.6-1.3-.1 1 1.6 1.3.1Zm1.3-1.3.2-1.5-1.4 1.3 1.2.2Zm209.5 31.5-4.7-2 1.2.2 2.3 1.7 1.2.1Zm25.7-.3c7.2.7 6.1-.9-3.4-3.3l-8.5-.9c-1-1.6-3.3-3.3-4.7-2l-1.3 1.4 1 1.6 16.9 3.2Zm7-9.7-2.3-3.1c.2-1.5.2-1.5 0 0l-1.2-.2v1.5l1 1.6 2.4.2Zm-.7-7.4-1.2-.1 1.1 1.6.1-1.5Z"></path><path fill="#C6BB8E" stroke="#000" stroke-width=".3" d="m771.6 423.7.9-.1.6-.5-.6.5c-.3.1-.6.2-.9.1Z"></path><path stroke="#000" stroke-width=".3" d="M882 261.5 774 390l-4.5 2.1-6.7 3.6-424.7-50.4"></path><path fill="url(#a)" stroke="#000" stroke-width=".3" d="m769.5 423.5-423-51.5c-1.5-.4-5-.7-6.7-2.4a9.5 9.5 0 0 1-2.5-6.8l1.1-17.6L763 395.6l6.7-3.5 3.1-1.5-3.2 32.9Z"></path><path fill="#BEB490" stroke="#000" stroke-width=".3" d="m769.5 423.5 3.2-33 1.4-.6L882 261.5c.4.5 1.1.6 1.1 1l-.8 19.7c0 3.6-3 8-4.1 9.3l-105 131.6c-.3.4-1 .7-1.6.6l-2.1-.2Z"></path><path fill="url(#b)" stroke="#000" stroke-width=".3" d="m769.6 239.6-.5.6a83.6 83.6 0 0 0-5.7 8 48.6 48.6 0 0 0-4 9.1 32.8 32.8 0 0 0-1.7 10c-.2 3.5-.1 7-.2 10.4-.2 4.6-.1 10.3 0 16.3a859.7 859.7 0 0 0 1.9 38.6L764 395l-1 .6-424.6-50.4-5-.7-16.9-98-2-13.6a28.5 28.5 0 0 1 15.7-29.4l439.4 36.1Z"></path><path fill="url(#c)" stroke="#000" stroke-width=".3" d="m769.6 239.6-439.4-36 .4-.3 185.8-91L881 135.8l1.2.5-31.2 27.5-9.9 9.1-11 10.6-11.8 11.6a705.2 705.2 0 0 1-23.4 21.3l-10.3 9a276.6 276.6 0 0 0-12.6 11.5l-2.4 2.7Z"></path><path fill="url(#d)" d="M529.2 276a11.6 11.6 0 0 1 9.9 11.4 9 9 0 0 1-2.9 6.5 9 9 0 0 1-6.7 1.8 10 10 0 0 1-5.7-3 11.4 11.4 0 0 1-3.6-7 10 10 0 0 1 2.8-7.2 8 8 0 0 1 6.2-2.5Z"></path><path fill="#DDDCCA" d="M527.1 276.3a10.3 10.3 0 0 1 8.8 10 8 8 0 0 1-2.6 5.9 8 8 0 0 1-5.9 1.6 9 9 0 0 1-5.1-2.6c-1.7-1.7-3-4-3.2-6.3 0-2.2.9-4.7 2.5-6.4a7.6 7.6 0 0 1 5.5-2.2Z"></path><path fill="url(#e)" d="M527.2 277.1c2.1.1 4.2 1.4 5.6 3 1.5 1.7 2.4 4 2.4 6.2 0 1.9-1 4-2.4 5.2a7.3 7.3 0 0 1-5.4 1.5 8 8 0 0 1-4.7-2.4 9.1 9.1 0 0 1-2.8-5.6 8 8 0 0 1 2.2-5.9 6.9 6.9 0 0 1 5.1-2Zm0 .5c-1.7-.1-3.6.7-4.7 1.9a7.6 7.6 0 0 0-2.2 5.4c.1 2 1.3 4 2.8 5.4a6.9 6.9 0 0 0 9.4.9 7 7 0 0 0 2.2-5c0-2-.9-4.2-2.3-5.8a8 8 0 0 0-5.2-2.8Z"></path><path fill="#2C2918" d="M527.5 284a.9.9 0 0 0-.7.3 1 1 0 0 0-.3.8l.4.7.6.3c.2 0 .5 0 .7-.2a1 1 0 0 0 .3-.6 1.2 1.2 0 0 0-1-1.2Z"></path><path fill="url(#f)" d="M531.6 302.6c2.2.1 4.3 1.4 5.8 3a9.7 9.7 0 0 1 2.4 6.5c0 2-1 4.1-2.4 5.4a7.6 7.6 0 0 1-5.6 1.5 8.3 8.3 0 0 1-4.8-2.5 9.5 9.5 0 0 1-3-5.8c0-2.2.9-4.5 2.4-6a7.1 7.1 0 0 1 5.2-2.1Z"></path><path fill="#DDDCCA" d="M529.9 302.9c1.9.1 3.8 1.3 5 2.7a8.5 8.5 0 0 1 2.2 5.7c0 1.7-.8 3.6-2.1 4.8a6.7 6.7 0 0 1-5 1.3c-1.5-.1-3-1-4.2-2.1a8.4 8.4 0 0 1-2.6-5.2c-.1-2 .7-4 2-5.4a6 6 0 0 1 4.7-1.8Z"></path><path fill="url(#g)" d="M529.9 303.5a7 7 0 0 1 4.7 2.5c1.2 1.4 2 3.3 2 5.2a6.7 6.7 0 0 1-2 4.4 6 6 0 0 1-4.5 1.2c-1.5-.2-2.9-1-4-2a7.6 7.6 0 0 1-2.3-4.7c0-1.8.6-3.6 1.9-4.9 1-1 2.7-1.7 4.2-1.7Zm0 .4a6 6 0 0 0-4 1.6 6.3 6.3 0 0 0-1.7 4.6c0 1.6 1 3.2 2.3 4.4a6 6 0 0 0 3.6 1.9c1.5.2 3.1-.2 4.2-1.2s1.8-2.6 1.8-4c0-1.8-.7-3.6-1.8-5a6.7 6.7 0 0 0-4.4-2.3Z"></path><path fill="#000" d="M532.9 326.3c.5 0 1 .4 1.2.9 0 .4-.3 1-.7 1.2-.6.1-1.3-.4-1.4-.9 0-.5.4-1 .9-1.2Z"></path><path fill="url(#h)" stroke="#4A432B" stroke-width=".3" d="m489.3 264.2 4.3 46.8-147.8-15-6.8-46 150.2 14.3Z"></path><path fill="#DEDDCB" d="M344.5 250.7 489 264.3l4.2 44.7-145.6-14.3-3.1-44Z"></path><path fill="url(#i)" stroke="#6F6A4F" stroke-width=".3" d="m485.7 267.1 1 21.3-133.2-12.8-1.3-21.8 133.5 13.3Z"></path><path stroke="#A3A28F" stroke-width=".3" d="m487 289.4.5 16.1L354 292l-.6-15.6 133.5 13Z"></path><path fill="#131212" d="M475.8 296c1.3.1 2.7 1.8 2.5 3.1-.1 1.3-1.9 2.5-3.2 2.3-1-.2-2-1.6-1.9-2.8.1-1.2 1.4-2.6 2.6-2.5Z"></path><path fill="#24211D" d="M464 295.4s-4.2-.8-6.3-1h-6.5v3.4s4.4 1 6.7 1.1c2 .2 6.4.2 6.4.2l-.2-3.7Z"></path><path stroke="#000" stroke-width=".3" d="M392.4 284c.3 0 .6.5.6.8 0 .3-.3.7-.7.7-.4 0-.7-.5-.7-.9 0-.3.4-.6.8-.5Z"></path><path fill="#6A6D5E" d="M444 294.5c.5 0 1 .7 1 1.2 0 .6-.6 1.3-1.1 1.3-.7 0-1.3-.9-1.2-1.5 0-.6.7-1 1.2-1Z"></path><path fill="#D8D5C5" stroke="#403F2F" stroke-width=".3" d="m374 285.4.2 6-17.1-2-.4-6 17.3 2Z"></path><path fill="url(#j)" stroke="#4A432B" stroke-width=".3" d="m495.7 314.3 4.7 45.1-145.5-16.8-8.6-43.3 149.4 15Z"></path><path fill="url(#k)" d="m353.7 300.3 141.8 14.2 4.6 43.9-142.5-17c-.5 0-.9-.6-.9-1.6l-3-39.5Z"></path><path fill="#C7C3AB" d="m460 236.7-.5 9.8s-20.2-2.2-30.3-2.7c-1.2 0-2.5-.4-3.6 0-1 .3-1.6 1-2.4 1.7-1.5 1.2-2.4 3.1-4.1 4a14.5 14.5 0 0 1-7.2 1.3c-2.1-.1-4.3-.6-6.2-1.7-2.1-1.2-3.4-3.6-5.1-5.3-.8-.8-1.5-1.7-2.5-2.2-1.2-.6-2.6-.8-4-1-12.1-2-36.9-3.3-36.9-3.3s-1.6 2-2.8 2.5c-1 .5-2.2.5-3.4.5-1.2 0-2.5-.2-3.6-.8a7.4 7.4 0 0 1-2.2-2.1 9.4 9.4 0 0 1-1.6-3 8.3 8.3 0 0 1 .9-6.8c.6-1 1.5-2 2.5-2.8a9 9 0 0 1 2.5-1.6c1-.4 2.2-.7 3.4-.6 1.2.2 2.4.8 3.3 1.5 1 .8 2.2 3.1 2.2 3.1s22.6 2.9 34 3.5c1.7 0 3.5.5 5.3 0 1.7-.4 3.3-1.5 4.7-2.5 1.8-1.3 3-3.3 4.7-4.4 2.4-1.4 5-3 7.7-2.9 2.2.2 4.2 1.8 5.8 3.4 1.5 1.6 1.8 4.1 3.4 5.7 1.4 1.4 3.2 2.4 5 3.1 2 .8 4 1 6 1.2 8.3 1.2 25 2.4 25 2.4Z"></path><g filter="url(#l)"><path fill="url(#m)" d="M349.3 228c-.2-.8-.8-1.8-.3-2.5.9-1.3 3-1.4 4.4-.9a6 6 0 0 1 3.7 4c.7 3 0 7.1-2.6 8.8-1.8 1.1-5.6 1-6.5-1-.6-1.3 2.5-2 2.8-3.6.3-1.6-1.1-3.1-1.5-4.8Z"></path></g><path fill="url(#n)" stroke="#918A6F" stroke-width=".3" d="M356.3 231c0 2.7-2 6.5-5 6.7-3 0-5.8-2.3-5.8-5.9 0-3.6 3.9-7 6.5-6.7 2.6.2 4.4 2.8 4.3 5.8Z"></path><path fill="#120C0E" d="m459.7 237.7-.5 5.5-51.7-4.6-38.6-4.4 2.1-5.3 5.8.4 59.7 6.3 23.3 1.6v.5Z"></path><path fill="url(#o)" d="M414.3 221h.5c2.2.1 4.2 1.8 5.8 3.3 1.3 1.4 1.7 3.4 2.8 5l-1.5-.4a18 18 0 0 0-11-.3c-4.3 1-13.7 2.4-13.7 2.4v-.1l.5-.2c1.7-.4 3.3-1.5 4.7-2.5 1.8-1.3 3-3.3 4.8-4.4 2.1-1.3 4.5-2.9 7-2.9Z"></path><path fill="url(#p)" d="m371.6 233.4-14 2.7 1.1-3.2-.3-5.7 13.1 1.6.1 4.6Z"></path><path fill="url(#q)" d="m371.6 233.4 29.9 2.2 17.7 3 15.9.2 24.7 1.9-.3 5.8s-20.2-2.2-30.3-2.7c-1.2 0-2.5-.4-3.6 0-1 .3-1.6 1-2.4 1.7-1.5 1.2-2.4 3.1-4.1 4a14.5 14.5 0 0 1-7.2 1.3 15 15 0 0 1-6.2-1.6c-2.1-1.3-2.8-4-4.6-5.7-.8-.7-1.6-1.6-2.6-2.1-1.2-.7-2.8-1.2-4.2-1.4-12.1-2-36.8-3.3-36.8-3.3l.2-.6 14-2.7Z"></path><path fill="url(#r)" d="M416.9 228c1.8 0 3.5.2 5 1l1.5.3.6.7c1.4 1.4 3.2 2.4 5 3.1 2 .8 4 .9 6 1.2 8.3 1.2 25 2.4 25 2.4l-.1 1.5-9.6-.5-2 1.3-10.3-.8-19.4-.8-14.3-1.6-13.2-1.8-1-2-16.2-1.2-.2-1.8c6.5.7 13.6 1.4 18.6 1.7 1.8 0 3.6.5 5.4 0a6 6 0 0 1-.6.2l.1.1s9.4-1.5 13.7-2.4c2.2-.5 4.1-.7 6-.7Z"></path><path fill="url(#s)" d="m371.6 233.4-14 2.7 1.1-3.2-.3-5.7 13.1 1.6.1 4.6Z"></path><path fill="#2D2814" d="M440.6 249.5c.6 0 1.2.7 1.2 1.3 0 .4-.5.9-.9 1-.6 0-1.4-.6-1.4-1.2 0-.5.6-1 1.1-1Z"></path><path fill="#C6BB8E" stroke="#000" stroke-width=".3" d="m882.4 136.5.6.6.6 1.4.5 2.3.7 2.1.1 2v1.8l.2 1.5.8 3.5a24.6 24.6 0 0 1 .3 4.3l-2.8 103.4a.7.7 0 0 1-.5.3l-.5.1a1 1 0 0 0-.5.2l-.2.6c0 .3 0 .6.2.8v.1L774.2 390l-4.5 2.2-5.9 3.1-4.3-62.6s-2.4-36.6-2-54.9c.3-6.8-.1-13.9 2-20.4 2-6.3 5.6-12 9.7-17.2 6.5-8 22.5-20.3 36.6-33.2 17.1-15.7 33-32.2 45.3-43 9.8-8.7 20.8-18.2 31.4-27.4Z"></path><path fill="#726742" d="M825.1 213c.7 0 .8 1.2.8 1.8 0 .6-.3 1.5-1 1.5-.4 0-.7-.8-.8-1.3 0-.7.3-2 1-2Zm4.5 1.5c.6 0 .8 1.2.7 1.8 0 .6-.3 1.5-.8 1.5-.6 0-.9-.8-.9-1.3 0-.8.2-2 1-2Zm-12.1 6c.6 0 .8 1.2.7 1.8 0 .6-.3 1.5-.9 1.5-.5 0-.8-.8-.8-1.3 0-.8.2-2 1-2Zm4.2 1.7c.6 0 .8 1.2.7 1.8 0 .6-.3 1.5-.9 1.5-.5 0-.8-.8-.8-1.3 0-.7.2-2 1-2Zm3.8 1.5c.7 0 .9 1.2.8 1.8 0 .6-.3 1.5-.9 1.5-.5 0-.8-.8-.8-1.3 0-.8.2-2 1-2Zm4 1.1c.7 0 .9 1.2.8 1.9 0 .6-.3 1.5-.8 1.5-.6 0-.9-.8-.9-1.3 0-.8.2-2 1-2Zm-19.3 3c.7.1.8 1.3.8 2 0 .5-.3 1.4-.9 1.4-.5 0-.8-.8-.8-1.3 0-.8.2-2 1-2Zm3.8 2c.7 0 .8 1.2.8 1.8 0 .6-.3 1.5-.9 1.5-.5 0-.8-.8-.8-1.3 0-.8.2-2 1-2Zm3.8 1.9c.7 0 .8 1.2.8 1.8 0 .6-.3 1.5-.9 1.5-.5 0-.8-.8-.8-1.3 0-.8.2-2 1-2Zm3.8 1.4c.7 0 .9 1.2.8 1.9 0 .6-.3 1.5-.9 1.5-.5 0-.8-.8-.8-1.4 0-.7.2-2 1-2Zm3.9.9c.6 0 .8 1.2.7 1.8 0 .6-.3 1.5-.9 1.5-.5 0-.8-.8-.8-1.3 0-.7.2-2 1-2Zm4.3.7c.6 0 .8 1.2.7 1.8 0 .6-.3 1.5-.9 1.5-.5 0-.8-.8-.8-1.3 0-.7.2-2 1-2Zm-26.8.2c.6 0 .8 1.2.8 1.9 0 .6-.4 1.5-1 1.5-.5 0-.8-.8-.8-1.4 0-.7.2-2 1-2Zm3.8 2c.6 0 .8 1.2.7 1.9 0 .6-.3 1.5-.8 1.5-.6 0-.9-.8-.9-1.4 0-.7.2-2 1-2Zm4 1.7c.6 0 .7 1.2.7 1.9 0 .6-.3 1.4-.9 1.4-.5 0-.8-.8-.8-1.3 0-.7.2-2 1-2Zm3.4 1.7c.6 0 .8 1.2.7 1.9 0 .5-.3 1.4-.8 1.4-.6 0-.9-.8-.9-1.3 0-.7.2-2 1-2Zm-17.3.4c.7 0 .8 1.1.8 1.8 0 .6-.3 1.5-.9 1.5-.5 0-.8-.8-.8-1.4 0-.7.2-2 1-2Zm21 1.1c.6 0 .8 1.2.7 1.9 0 .5-.3 1.4-.8 1.4-.6 0-.9-.8-.9-1.3 0-.7.2-2 1-2Zm4 1c.6 0 .7 1.1.7 1.8 0 .6-.3 1.5-.9 1.5-.5 0-.8-.8-.8-1.4 0-.7.2-2 1-2Zm-21.8.5c.7 0 .8 1.2.8 1.9 0 .6-.3 1.5-.9 1.5-.5 0-.8-.8-.8-1.4 0-.7.2-2 1-2Zm25.8.5c.6 0 .8 1.2.7 1.9 0 .6-.3 1.5-.9 1.5-.5 0-.8-.8-.8-1.4 0-.7.2-2 1-2Zm4.1.7c.7 0 .8 1.2.8 1.9 0 .5-.3 1.5-.9 1.5-.5 0-.8-.8-.8-1.4 0-.7.2-2 1-2Zm-26.4 1c.6 0 .8 1.1.7 1.8 0 .6-.3 1.4-.8 1.5-.6 0-.9-.8-.9-1.4 0-.7.2-2 1-2Zm-12.9 1.4c.7 0 .8 1.2.8 1.8 0 .6-.3 1.5-1 1.5-.4 0-.7-.8-.8-1.3 0-.8.3-2 1-2Zm16.3.5c.7 0 .8 1.2.8 1.9 0 .6-.3 1.5-.9 1.5-.5 0-.8-.8-.8-1.3 0-.8.2-2 1-2Zm3.7 1.7c.7 0 .8 1.2.8 1.9 0 .6-.3 1.4-.9 1.5-.5 0-.8-.8-.8-1.4 0-.7.2-2 1-2Zm-16.7.5c.6 0 .8 1.1.8 1.8 0 .6-.4 1.5-1 1.5-.5 0-.8-.8-.8-1.3 0-.8.2-2 1-2Zm20.5 1c.7 0 .8 1.2.8 1.9 0 .6-.3 1.5-.9 1.5-.5 0-.8-.8-.9-1.4 0-.7.3-2 1-2Zm3.8 1.2c.7 0 .8 1.2.8 1.9 0 .5-.3 1.4-1 1.4-.4 0-.7-.8-.8-1.3 0-.7.3-2 1-2Zm-33 .1c.7 0 .8 1.2.8 1.9 0 .5-.3 1.4-1 1.4-.4 0-.7-.8-.8-1.3 0-.7.3-2 1-2Zm11.8.2c.7 0 .8 1.2.8 1.8 0 .6-.4 1.5-1 1.5-.5 0-.7-.8-.8-1.3 0-.8.3-2 1-2Zm25 .7c.7 0 .9 1.2.8 1.9 0 .6-.3 1.4-.9 1.5-.5 0-.8-.8-.8-1.4 0-.7.2-2 1-2Zm4 1c.7 0 .8 1.2.8 1.9 0 .5-.3 1.5-.9 1.5-.5 0-.8-.8-.8-1.4 0-.7.2-2 1-2Zm-25.9.3c.7 0 .8 1.2.8 1.8 0 .6-.3 1.5-.9 1.5-.5 0-.8-.8-.9-1.3 0-.7.3-2 1-2Zm30 .5c.7 0 .9 1.2.8 1.9 0 .5-.3 1.4-.8 1.4-.6 0-.9-.8-.9-1.3 0-.7.2-2 1-2Zm-42 .5c.6 0 .8 1.2.7 1.9 0 .5-.3 1.4-.8 1.4-.6 0-.9-.8-.9-1.3 0-.7.2-2 1-2Zm15.5 1c.6 0 .8 1.1.7 1.8 0 .5-.3 1.5-.9 1.5-.5 0-.8-.8-.8-1.4 0-.7.2-2 1-2Zm-23 .5c.6 0 .7 1.2.7 1.9 0 .5-.3 1.4-1 1.5-.4 0-.7-.9-.8-1.4 0-.7.3-2 1-2Zm10.4 1c.7 0 .8 1.2.8 1.9 0 .6-.3 1.5-.9 1.5-.5 0-.8-.8-.9-1.3 0-.8.3-2 1-2Zm16 .5c.8 0 1 1.2.9 1.9 0 .6-.4 1.4-1 1.5-.5 0-.7-.8-.8-1.4 0-.7.2-2 1-2Zm3.8 1.3c.7 0 .8 1.2.8 1.8 0 .6-.4 1.5-1 1.5-.5 0-.7-.8-.8-1.3 0-.7.3-2 1-2Zm-27.8 1c.7 0 .8 1.1.8 1.8 0 .5-.3 1.4-.9 1.4-.5 0-.8-.8-.8-1.3 0-.7.2-2 1-2Zm11 .1c.7 0 .9 1.2.8 1.8 0 .6-.3 1.5-.9 1.5-.5 0-.8-.8-.8-1.3 0-.7.2-2 1-2Zm20.6.3c.7 0 .8 1.2.7 1.9 0 .5-.3 1.4-.8 1.4-.6 0-.9-.8-.9-1.3 0-.7.2-2 1-2Zm-38.3 0c.7 0 .8 1.2.8 1.9 0 .5-.3 1.4-1 1.4-.4 0-.7-.8-.8-1.3 0-.7.3-2 1-2Zm42 1c.7 0 .9 1.1.8 1.8 0 .6-.3 1.5-.9 1.5-.5 0-.8-.8-.8-1.4 0-.7.2-2 1-2Zm-21.3.9c.7 0 .8 1.2.8 1.8 0 .6-.3 1.5-.9 1.5-.5 0-.8-.8-.8-1.3 0-.7.2-2 1-2Zm25.3 0c.7 0 .8 1.2.8 2 0 .5-.3 1.4-.9 1.4-.5 0-.8-.8-.8-1.3 0-.8.2-2 1-2Zm-36.5.8c.6 0 .8 1.2.7 1.8 0 .6-.3 1.5-.9 1.5-.5 0-.8-.8-.8-1.3 0-.8.2-2 1-2Zm40.7.1c.7 0 .8 1.2.8 1.8 0 .6-.3 1.5-.9 1.5-.5 0-.8-.8-.8-1.3 0-.7.2-2 1-2Zm4 .3c.8 0 .9 1.1.8 1.8 0 .6-.3 1.5-.8 1.5-.6 0-.8-.8-.9-1.3 0-.8.2-2 1-2Zm-57.7.3c.6 0 .8 1.2.7 1.8 0 .6-.3 1.5-.9 1.5-.5 0-.8-.8-.8-1.3 0-.8.2-2 1-2Zm27.5.3c.7 0 .8 1.2.8 1.9 0 .6-.4 1.5-1 1.5-.5 0-.7-.8-.8-1.3 0-.8.3-2 1-2Zm-21.6.4c.6 0 .8 1.1.7 1.8 0 .6-.3 1.5-.9 1.5-.5 0-.8-.8-.8-1.3 0-.8.2-2 1-2Zm9.6 1.3c.7 0 .8 1.1.8 1.8 0 .6-.4 1.5-1 1.5-.5 0-.7-.8-.8-1.3 0-.8.3-2 1-2Zm15.4.2c.7 0 .9 1.2.8 1.8 0 .6-.3 1.5-.9 1.5-.5 0-.8-.8-.8-1.3 0-.7.2-2 1-2Zm-34.5 1.1c.7 0 .8 1.2.8 1.9 0 .6-.3 1.5-.9 1.5-.5 0-.8-.8-.8-1.3 0-.8.2-2 1-2Zm11.5.8c.7 0 .8 1.1.8 1.8 0 .6-.3 1.5-.9 1.5-.5 0-.8-.8-.8-1.3 0-.8.2-2 1-2Zm26.6 0c.6 0 .8 1.2.7 1.8 0 .6-.3 1.5-.9 1.5-.5 0-.8-.8-.8-1.3 0-.7.2-2 1-2Zm-16.1 0c.6 0 .8 1.2.7 1.9 0 .6-.3 1.5-.9 1.5-.5 0-.8-.8-.8-1.3 0-.8.2-2 1-2Zm-16.4.3c.7 0 .8 1.1.7 1.8 0 .6-.3 1.5-.8 1.5-.6 0-.8-.8-.9-1.4 0-.7.2-2 1-2Zm36.1 1c.7 0 .8 1.2.8 1.9 0 .6-.3 1.5-.9 1.5-.5 0-.8-.8-.8-1.3 0-.8.2-2 1-2Zm4 1.4c.6 0 .7 1.2.7 1.9 0 .5-.3 1.4-1 1.5-.4 0-.7-.8-.8-1.4 0-.7.3-2 1-2Zm-20.7.2c.6 0 .8 1.2.8 1.9 0 .5-.4 1.4-1 1.4-.5 0-.8-.8-.8-1.3 0-.7.2-2 1-2Zm-11.1.2c.6 0 .8 1.1.7 1.8 0 .6-.3 1.5-.9 1.5-.5 0-.8-.8-.8-1.4 0-.7.2-2 1-2Zm35.7.5c.7 0 .8 1.2.8 1.9 0 .5-.4 1.4-1 1.4-.5 0-.7-.8-.8-1.3 0-.7.3-2 1-2Zm-47.6.2c.7 0 .9 1.2.8 1.8 0 .6-.3 1.5-.9 1.5-.5 0-.8-.8-.8-1.3 0-.8.2-2 1-2Zm5.5.3c.7 0 .8 1.1.7 1.8 0 .6-.3 1.5-.8 1.5-.6 0-.8-.8-.9-1.3 0-.8.2-2 1-2Zm46.2.3c.7 0 .8 1.2.8 1.8 0 .6-.3 1.5-1 1.5-.4 0-.7-.8-.8-1.3 0-.7.3-2 1-2Zm4 .5c.6 0 .7 1.2.7 1.9 0 .5-.3 1.4-.9 1.4-.5 0-.8-.7-.8-1.3 0-.7.2-2 1-2Zm-29.9 0c.7 0 .9 1.2.8 1.9 0 .5-.3 1.4-.9 1.4-.5 0-.8-.7-.8-1.3 0-.7.2-2 1-2Zm34 .3c.6 0 .7 1.2.7 1.9 0 .5-.3 1.5-.9 1.5-.5 0-.8-.8-.8-1.4 0-.7.2-2 1-2Zm-45.3.9c.7 0 .8 1.2.8 1.8 0 .6-.3 1.5-.9 1.5-.5 0-.8-.8-.8-1.3 0-.8.2-2 1-2Zm14.9.8c.6 0 .8 1.2.7 1.9 0 .6-.3 1.5-.8 1.5-.6 0-.9-.8-.9-1.4 0-.7.2-2 1-2Zm-27.5.8c.7 0 .8 1.1.8 1.8 0 .6-.3 1.5-1 1.5-.4 0-.7-.8-.8-1.4 0-.7.3-2 1-2Zm5.5.2c.7 0 .8 1.1.8 1.8 0 .6-.4 1.5-1 1.5-.5 0-.7-.8-.8-1.3 0-.8.3-2 1-2Zm25.3.9c.7 0 .9 1.2.8 1.8 0 .6-.3 1.5-.9 1.5-.5 0-.8-.8-.8-1.3 0-.7.2-2 1-2Zm-15.5 0c.6 0 .8 1.2.7 1.9 0 .5-.3 1.4-.9 1.4-.5 0-.8-.8-.8-1.3 0-.7.2-2 1-2Zm19.2 1.3c.7 0 .9 1.2.8 1.9 0 .6-.3 1.5-.9 1.5-.5 0-.8-.8-.8-1.4 0-.7.2-2 1-2Zm-38 .6c.6 0 .8 1.2.8 1.8 0 .6-.4 1.5-1 1.5-.5 0-.8-.8-.8-1.3 0-.8.2-2 1-2Zm11.3.4c.6 0 .8 1.2.7 1.9 0 .5-.3 1.5-.9 1.5-.5 0-.8-.9-.8-1.4 0-.7.2-2 1-2Zm10.5.3c.7 0 .9 1.2.8 1.8 0 .6-.3 1.5-.9 1.5-.5 0-.8-.8-.8-1.3 0-.8.2-2 1-2Zm-16.4 0c.6 0 .8 1.2.7 1.8 0 .6-.3 1.5-.9 1.5-.5 0-.8-.8-.8-1.3 0-.8.2-2 1-2Zm36.2 0c.6.1.8 1.3.7 2 0 .5-.3 1.4-.8 1.4-.6 0-.9-.8-.9-1.3 0-.8.2-2 1-2Zm4 1c.7.1.8 1.3.8 2 0 .5-.3 1.4-1 1.4-.4 0-.7-.8-.8-1.3 0-.8.3-2 1-2Zm4 1.1c.7 0 .9 1.2.8 1.8 0 .6-.3 1.5-.9 1.5-.5 0-.8-.8-.8-1.3 0-.7.2-2 1-2Zm-24.9 0c.7 0 .8 1.2.8 2 0 .5-.3 1.4-1 1.4-.4 0-.7-.8-.8-1.3 0-.8.3-2 1-2Zm29.2.3c.6 0 .8 1.2.7 1.9 0 .6-.3 1.5-.9 1.5-.5 0-.8-.8-.8-1.4 0-.7.2-2 1-2Zm-40.2.4c.7 0 .8 1.2.8 1.9 0 .5-.4 1.4-1 1.5-.5 0-.7-.9-.8-1.4 0-.7.3-2 1-2Zm44 .1c.7 0 .8 1.2.8 1.9 0 .6-.3 1.5-.9 1.5-.5 0-.8-.8-.8-1.4 0-.7.2-2 1-2Zm4.3.3c.7 0 .8 1.1.8 1.8 0 .6-.3 1.5-1 1.5-.4 0-.7-.8-.8-1.3 0-.8.3-2 1-2Zm-60.1.1c.7 0 .8 1.2.8 1.9 0 .5-.3 1.4-1 1.4-.4 0-.7-.8-.8-1.3 0-.7.3-2 1-2Zm5.2.4c.7 0 .8 1.1.7 1.8 0 .6-.3 1.5-.8 1.5-.6 0-.8-.8-.9-1.4 0-.7.2-2 1-2Zm20.7.4c.7 0 .8 1.2.8 1.9 0 .5-.4 1.5-1 1.5-.5 0-.7-.9-.8-1.4 0-.7.3-2 1-2Zm-11.4.9c.6 0 .8 1.1.7 1.8 0 .6-.3 1.5-.8 1.5-.6 0-.9-.8-.9-1.3 0-.8.2-2 1-2Zm14.8 1c.7 0 .9 1.2.8 1.8 0 .6-.3 1.5-.9 1.5-.5 0-.8-.8-.8-1.3 0-.8.2-2 1-2Zm-21.8 1.1c.7 0 .8 1.2.8 1.8 0 .6-.3 1.5-1 1.5-.4 0-.7-.8-.8-1.3 0-.7.3-2 1-2Zm25.4.2c.6 0 .8 1.2.7 1.8 0 .6-.3 1.5-.9 1.5-.5 0-.8-.8-.8-1.3 0-.8.2-2 1-2Zm-31 0c.7 0 .9 1.2.8 1.9 0 .6-.3 1.5-.9 1.5-.5 0-.8-.8-.8-1.4 0-.7.2-2 1-2Zm15.2.6c.7 0 .8 1.2.7 1.8 0 .6-.3 1.5-.8 1.5-.6 0-.8-.8-.9-1.3 0-.8.2-2 1-2Zm19.3.6c.6 0 .8 1.2.7 1.9 0 .5-.3 1.4-.9 1.5-.5 0-.8-.9-.8-1.4 0-.7.2-2 1-2Zm3.8 1.4c.6 0 .8 1.2.7 1.8 0 .6-.3 1.5-.8 1.5-.6 0-.9-.8-.9-1.3 0-.8.2-2 1-2Zm-30.5 0c.6 0 .8 1.2.7 1.8 0 .6-.3 1.5-.9 1.5-.5 0-.8-.8-.8-1.3 0-.8.2-2 1-2Zm10.2.2c.6 0 .8 1.2.7 1.8 0 .6-.3 1.5-.8 1.5-.6 0-.9-.8-.9-1.3 0-.8.2-2 1-2Zm-21.3.6c.6 0 .8 1.2.7 1.8 0 .6-.3 1.5-.9 1.5-.5 0-.8-.8-.8-1.3 0-.8.2-2 1-2Zm45.5 0c.7.1.8 1.3.8 2 0 .5-.3 1.4-1 1.4-.4 0-.7-.8-.8-1.3 0-.8.3-2 1-2Zm-40.5.5c.7 0 .8 1.2.8 1.8 0 .6-.3 1.5-.9 1.5-.5 0-.8-.8-.9-1.3 0-.8.3-2 1-2Zm44.5.2c.7 0 .8 1.2.8 1.9 0 .6-.3 1.5-.9 1.5-.5 0-.8-.8-.8-1.4 0-.7.2-2 1-2Zm4 .5c.8 0 .9 1.2.8 1.9 0 .5-.3 1.4-.8 1.4-.6 0-.8-.8-.9-1.3 0-.7.2-2 1-2Zm4.5.3c.7 0 .8 1.1.7 1.8 0 .6-.3 1.5-.8 1.5-.6 0-.8-.8-.9-1.4 0-.7.2-2 1-2Zm-33.6 0c.7 0 .8 1.3.8 2 0 .5-.3 1.4-.9 1.4-.5 0-.8-.8-.8-1.3 0-.8.2-2 1-2Zm37.8.1c.6 0 .8 1.2.7 1.9 0 .5-.3 1.4-.9 1.4-.5 0-.8-.8-.8-1.3 0-.7.2-2 1-2Zm-48.7.8c.7 0 .8 1.2.8 1.8 0 .6-.4 1.5-1 1.5-.5 0-.7-.8-.8-1.3 0-.7.3-2 1-2Zm14.3 1c.6 0 .8 1.3.7 2 0 .5-.3 1.4-.8 1.4-.6 0-.9-.8-.9-1.3 0-.8.2-2 1-2Zm-20.9.5c.7 0 .8 1.2.8 1.9 0 .5-.3 1.4-.9 1.4-.5 0-.8-.8-.8-1.3 0-.7.2-2 1-2Zm-5.4 0c.7 0 .8 1.2.7 2 0 .5-.3 1.4-.8 1.4-.6 0-.8-.8-.9-1.3 0-.8.2-2 1-2Zm14.7 1.3c.7 0 .8 1.2.8 1.8 0 .6-.3 1.5-1 1.5-.4 0-.7-.8-.8-1.3 0-.8.3-2 1-2Zm14.8.1c.7 0 .8 1.2.8 1.9 0 .5-.3 1.4-.9 1.4-.5 0-.8-.8-.8-1.3 0-.7.2-2 1-2Zm3.5 1.6c.7 0 .8 1.1.7 1.8 0 .6-.3 1.5-.8 1.5-.6 0-.8-.8-.9-1.3 0-.8.2-2 1-2Zm-25.4.3c.6 0 .8 1.2.7 1.9 0 .6-.3 1.5-.9 1.5-.5 0-.8-.8-.8-1.4 0-.7.2-2 1-2Zm-5.5.3c.7 0 .8 1.2.8 1.8 0 .6-.3 1.5-1 1.5-.4 0-.8-.8-.8-1.3 0-.7.3-2 1-2Zm34.6.4c.7 0 .8 1.2.8 1.8 0 .6-.3 1.5-.9 1.5-.5 0-.8-.8-.8-1.3 0-.8.2-2 1-2Zm-19 0c.7 0 .9 1.2.8 1.8 0 .6-.3 1.5-.9 1.5-.5 0-.8-.8-.8-1.3 0-.8.2-2 1-2Zm22.8 1c.7 0 .9 1.2.8 1.9 0 .6-.3 1.5-.9 1.5-.5 0-.8-.8-.8-1.4 0-.7.2-2 1-2Zm3.9 1c.6 0 .8 1.1.7 1.8 0 .5-.3 1.5-.9 1.5-.5 0-.8-.9-.8-1.4 0-.7.2-2 1-2Zm-24 .3c.6 0 .8 1.2.7 1.9 0 .5-.3 1.4-.9 1.4-.5 0-.8-.8-.8-1.3 0-.7.2-2 1-2Zm32.5 0c.6 0 .8 1.2.7 1.9 0 .6-.3 1.5-.9 1.5-.5 0-.8-.8-.8-1.4 0-.7.2-2 1-2Zm-43 0c.7 0 .9 1.3.8 2 0 .5-.3 1.4-.9 1.4-.5 0-.8-.8-.8-1.3 0-.8.2-2 1-2Zm38.7.2c.7 0 .8 1.1.8 1.8 0 .6-.3 1.5-.9 1.5-.5 0-.8-.8-.8-1.3 0-.8.2-2 1-2Zm13 0c.6 0 .7 1.2.7 1.9 0 .6-.3 1.5-.9 1.5-.5 0-.8-.8-.9-1.4 0-.7.3-2 1-2Zm-4.8 0c.7.1.9 1.3.8 2 0 .5-.3 1.4-.9 1.4-.5 0-.8-.8-.8-1.3 0-.8.2-2 1-2Zm-58 .2c.7 0 .8 1.2.8 1.8 0 .6-.3 1.5-.9 1.5-.5 0-.8-.8-.9-1.3 0-.8.3-2 1-2Zm5 .7c.7 0 .9 1.2.8 2 0 .5-.3 1.4-.9 1.4-.5 0-.8-.8-.8-1.3 0-.8.2-2 1-2Zm19.4.7c.7 0 .8 1.2.8 1.8 0 .6-.3 1.5-1 1.5-.4 0-.7-.8-.8-1.3 0-.7.3-2 1-2Zm-10.8 1.2c.6 0 .8 1.2.8 1.9 0 .6-.4 1.5-1 1.5-.5 0-.8-.8-.8-1.4 0-.7.2-2 1-2Zm14.3.6c.6 0 .8 1.2.7 1.9 0 .6-.3 1.5-.9 1.5-.5 0-.8-.8-.8-1.4 0-.7.2-2 1-2Zm-26.3 1c.7 0 .8 1.1.8 1.8 0 .5-.3 1.4-1 1.5-.4 0-.7-.9-.8-1.4 0-.7.3-2 1-2Zm5.6 0c.6 0 .8 1.2.7 1.8 0 .6-.3 1.5-.9 1.5-.5 0-.8-.8-.8-1.3 0-.7.2-2 1-2Zm23.8.5c.6 0 .8 1.2.7 1.9 0 .6-.3 1.5-.9 1.5-.5 0-.8-.8-.8-1.3 0-.8.2-2 1-2Zm-15 .3c.7 0 .8 1.2.8 1.9 0 .5-.3 1.4-.9 1.4-.5 0-.8-.8-.9-1.3 0-.7.3-2 1-2Zm18.8 1.3c.6 0 .8 1.1.7 1.8 0 .6-.3 1.5-.9 1.5-.5 0-.8-.8-.8-1.3 0-.8.2-2 1-2Zm3.5.8c.7 0 .8 1.2.8 1.9 0 .5-.3 1.4-1 1.4-.4 0-.7-.8-.8-1.3 0-.7.3-2 1-2Zm-29 .5c.6 0 .8 1.1.7 1.8 0 .6-.3 1.5-.9 1.5-.5 0-.8-.8-.8-1.3 0-.8.2-2 1-2Zm9.7 0c.7.1.8 1.3.8 2 0 .5-.4 1.4-1 1.4-.5 0-.7-.8-.8-1.3 0-.7.3-2 1-2Zm23.3.3c.7 0 .8 1.1.8 1.8 0 .6-.3 1.5-.9 1.5-.5 0-.8-.8-.8-1.3 0-.8.2-2 1-2Zm-38.7 0c.7.1.8 1.3.8 2 0 .5-.3 1.4-.9 1.4-.5 0-.8-.8-.8-1.3 0-.8.2-2 1-2Zm42.8.6c.6 0 .8 1.2.7 1.9 0 .6-.3 1.5-.8 1.5-.6 0-.9-.9-.9-1.4 0-.7.2-2 1-2Zm4 .4c.6 0 .7 1.2.7 1.8 0 .6-.3 1.5-1 1.5-.4 0-.7-.8-.8-1.3 0-.8.3-2 1-2Zm4.3 0c.7 0 .8 1.2.8 1.9 0 .6-.3 1.5-1 1.5-.4 0-.7-.8-.8-1.3 0-.8.3-2 1-2Zm4.4.2c.7 0 .9 1.2.8 1.9 0 .5-.3 1.4-.9 1.4-.5 0-.8-.8-.8-1.3 0-.7.2-2 1-2Zm-37 .8c.6 0 .7 1.2.7 1.9 0 .6-.3 1.5-.9 1.5-.5 0-.8-.8-.8-1.3 0-.8.2-2 1-2Zm-10.6.8c.6 0 .8 1.2.7 2 0 .5-.3 1.4-.9 1.4-.5 0-.8-.8-.8-1.3 0-.8.2-2 1-2Zm-11.1.2c.6 0 .8 1.2.7 1.9 0 .5-.3 1.4-.8 1.4-.6 0-.9-.8-.9-1.3 0-.7.2-2 1-2Zm24.5.4c.7 0 .9 1.2.8 1.9 0 .5-.3 1.4-.9 1.4-.5 0-.8-.8-.8-1.3 0-.7.2-2 1-2Zm-19.4.5c.7 0 .8 1.2.7 1.8 0 .6-.3 1.5-.8 1.5-.6 0-.8-.8-.9-1.3 0-.8.2-2 1-2Zm22.7 1.4c.7 0 .8 1.1.8 1.8 0 .6-.3 1.5-1 1.5-.4 0-.7-.8-.8-1.3 0-.8.3-2 1-2Zm-14.2 0c.6 0 .8 1.3.7 2 0 .5-.3 1.4-.8 1.4-.6 0-.9-.8-.9-1.3 0-.8.2-2 1-2Zm17.6 1.4c.7 0 .8 1.2.8 1.9 0 .6-.3 1.5-1 1.5-.4 0-.7-.8-.8-1.4 0-.7.3-2 1-2Zm-24 .3c.7 0 .9 1.2.8 1.9 0 .6-.3 1.5-.9 1.5-.5 0-.8-.8-.8-1.4 0-.7.2-2 1-2Zm-5.2.1c.6 0 .8 1.2.7 1.9 0 .6-.3 1.5-.9 1.5-.5 0-.8-.8-.8-1.4 0-.7.2-2 1-2Zm14.2.5c.6 0 .8 1.1.8 1.8 0 .6-.4 1.5-1 1.5-.5 0-.8-.8-.8-1.3 0-.8.2-2 1-2Zm18.6.3c.6 0 .8 1.2.7 1.9 0 .6-.3 1.4-.8 1.5-.6 0-.9-.8-.9-1.4 0-.7.2-2 1-2Zm3.7 1c.6 0 .8 1.2.7 1.9 0 .6-.3 1.5-.9 1.5-.5 0-.8-.8-.8-1.4 0-.7.2-2 1-2Zm3.8.6c.6 0 .8 1.2.7 1.8 0 .6-.3 1.5-.9 1.5-.5 0-.8-.8-.8-1.3 0-.8.2-2 1-2Zm-23.2.4c.7 0 .8 1.2.8 1.8 0 .6-.3 1.5-.9 1.5-.5 0-.8-.8-.8-1.3 0-.8.2-2 1-2Zm31.6.1c.6 0 .8 1.2.7 1.9 0 .5-.3 1.4-.9 1.4-.5 0-.8-.8-.8-1.3 0-.7.2-2 1-2Zm-4.3 0c.6 0 .8 1.3.7 2 0 .5-.3 1.4-.8 1.4-.6 0-.9-.8-.9-1.3 0-.8.2-2 1-2Zm-37 .2c.6 0 .8 1.2.7 1.9 0 .6-.3 1.5-.8 1.5-.6 0-.9-.8-.9-1.3 0-.8.2-2 1-2Zm-6 .5c.7 0 .9 1.2.8 1.8 0 .6-.3 1.5-.8 1.5-.6 0-.9-.8-.9-1.3 0-.8.2-2 1-2Zm18.7 1.3c.6 0 .8 1.2.7 1.8 0 .6-.3 1.5-.8 1.5-.6 0-.9-.8-.9-1.3 0-.8.2-2 1-2Zm-10.5 1c.7 0 .9 1.2.8 1.8 0 .6-.3 1.5-.9 1.5-.5 0-.8-.8-.8-1.3 0-.8.2-2 1-2Zm13.5.6c.7 0 .8 1.2.8 1.8 0 .6-.3 1.5-1 1.5-.4 0-.7-.8-.8-1.3 0-.8.3-2 1-2Zm-24.7.4c.7 0 .9 1.2.8 2 0 .5-.3 1.4-.9 1.4-.5 0-.8-.8-.8-1.3 0-.8.2-2 1-2Zm5 .2c.7 0 .8 1.2.8 1.9 0 .6-.4 1.4-1 1.5-.5 0-.8-.8-.8-1.4 0-.7.2-2 1-2Zm22.8.9c.7 0 .8 1.2.8 1.8 0 .6-.3 1.5-.9 1.5-.5 0-.8-.8-.9-1.3 0-.8.3-2 1-2Zm-14 .1c.7 0 .9 1.2.8 1.9 0 .6-.3 1.5-.9 1.5-.5 0-.8-.8-.8-1.4 0-.7.2-2 1-2Zm17.5 1.6c.6 0 .8 1.1.7 1.8 0 .6-.3 1.5-.9 1.5-.5 0-.8-.8-.8-1.3 0-.8.2-2 1-2Zm-24.1.8c.7 0 .8 1.1.8 1.8 0 .6-.4 1.5-1 1.5-.5 0-.8-.8-.8-1.3 0-.8.2-2 1-2Zm27.8.2c.6 0 .8 1.2.7 1.8 0 .6-.3 1.5-.9 1.5-.5 0-.8-.8-.8-1.3 0-.8.2-2 1-2Zm-18.7.2c.7 0 .9 1.2.8 1.8 0 .6-.3 1.5-.9 1.5-.5 0-.8-.8-.8-1.3 0-.8.2-2 1-2Zm-14.5 0c.7 0 .8 1.3.8 2 0 .5-.3 1.4-.9 1.4-.5 0-.8-.8-.9-1.3 0-.8.3-2 1-2Zm37 .6c.7 0 .8 1.2.8 1.9 0 .5-.3 1.4-.9 1.4-.5 0-.8-.8-.8-1.3 0-.7.2-2 1-2Zm3.8.4c.7 0 .9 1.2.8 1.9 0 .6-.3 1.5-.9 1.5-.5 0-.8-.8-.8-1.4 0-.7.2-2 1-2Zm-23.5 1.1c.6 0 .8 1.2.8 1.9 0 .5-.4 1.4-1 1.4-.5 0-.8-.8-.8-1.3 0-.7.2-2 1-2Zm-9.8.5c.7 0 .8 1.2.8 1.8 0 .6-.3 1.5-.9 1.5-.5 0-.8-.8-.8-1.3 0-.7.2-2 1-2Zm-5.6 1c.7.1.9 1.3.8 2 0 .5-.3 1.4-.9 1.4-.5 0-.8-.8-.8-1.3 0-.8.2-2 1-2Zm18.4.4c.6 0 .8 1.2.7 1.9 0 .5-.3 1.4-.9 1.4-.5 0-.8-.8-.8-1.3 0-.7.2-2 1-2Zm3.2 1.2c.6 0 .8 1.2.7 1.9 0 .5-.3 1.4-.8 1.4-.6 0-.9-.8-.9-1.3 0-.7.2-2 1-2Zm-13.5.2c.7 0 .8 1.2.8 1.9 0 .6-.3 1.5-.9 1.5-.5 0-.8-.8-.8-1.4 0-.7.2-2 1-2Zm16.7 1.3c.7 0 .8 1.2.8 2 0 .5-.4 1.4-1 1.4-.5 0-.8-.8-.8-1.3 0-.8.2-2 1-2Zm-28 .2c.7 0 .8 1.2.8 1.8 0 .6-.3 1.5-.9 1.5-.5 0-.8-.8-.8-1.3 0-.8.2-2 1-2Zm5.2.1c.6 0 .8 1.2.7 1.9 0 .5-.3 1.4-.9 1.5-.5 0-.8-.8-.8-1.4 0-.7.2-2 1-2Zm8.7 1c.6 0 .8 1.1.8 1.8 0 .6-.4 1.5-1 1.5-.5 0-.8-.8-.8-1.4 0-.7.2-2 1-2Zm17.8 0c.6 0 .8 1.2.7 2 0 .5-.3 1.4-.8 1.4-.6 0-.9-.8-.9-1.3 0-.8.2-2 1-2Zm3.5 1.1c.7 0 .9 1.2.8 1.9 0 .6-.3 1.4-.9 1.5-.5 0-.8-.8-.8-1.4 0-.7.2-2 1-2Zm-27.8.9c.6 0 .8 1.2.7 1.8 0 .6-.3 1.5-.9 1.5-.5 0-.8-.8-.8-1.3 0-.8.2-2 1-2Zm9.1 0c.7.1.8 1.3.8 2 0 .5-.3 1.4-1 1.4-.4 0-.7-.8-.8-1.3 0-.8.3-2 1-2Zm-14.7.7c.7 0 .8 1.2.8 1.9 0 .6-.3 1.5-.9 1.5-.5 0-.8-.8-.8-1.4 0-.7.2-2 1-2Zm17.4 1.6c.7 0 .9 1.2.8 1.8 0 .6-.3 1.5-.9 1.5-.5 0-.8-.8-.8-1.3 0-.8.2-2 1-2Zm-9.7.5c.6 0 .8 1.2.7 1.9 0 .6-.3 1.4-.9 1.5-.5 0-.8-.8-.8-1.4 0-.7.2-2 1-2ZM794 341c.6 0 .8 1.2.7 1.9 0 .5-.3 1.4-.8 1.4-.6 0-.9-.8-.9-1.3 0-.7.2-2 1-2Zm-18.5 0c.7 0 .8 1.2.8 1.9 0 .5-.3 1.4-.9 1.4-.5 0-.8-.8-.9-1.3 0-.7.3-2 1-2Zm21.6 1.4c.6 0 .8 1.2.7 1.9 0 .6-.3 1.4-.9 1.5-.5 0-.8-.8-.8-1.4 0-.7.2-2 1-2Zm-13.7.3c.7 0 .8 1.2.8 1.8 0 .6-.3 1.5-.9 1.5-.5 0-.8-.8-.8-1.3 0-.8.2-2 1-2Zm17 1.2c.7 0 .8 1.1.8 1.8 0 .6-.3 1.5-1 1.5-.4 0-.7-.8-.8-1.3 0-.8.3-2 1-2Zm-22.9.4c.7 0 .9 1.2.8 1.8 0 .6-.3 1.5-.9 1.5-.5 0-.8-.8-.8-1.3 0-.8.2-2 1-2Zm-5.2.1c.7 0 .8 1.2.8 1.9 0 .6-.3 1.5-.9 1.5-.5 0-.8-.8-.8-1.3 0-.8.2-2 1-2Zm13.8.6c.7 0 .8 1.2.8 1.9 0 .6-.3 1.5-.9 1.5-.5 0-.8-.8-.8-1.4 0-.7.2-2 1-2Zm2.5 1.7c.7 0 .9 1.2.8 1.9 0 .5-.3 1.4-.9 1.4-.5 0-.8-.8-.8-1.3 0-.7.2-2 1-2Zm-9 .5c.6 0 .8 1.2.7 1.9 0 .5-.3 1.4-.9 1.5-.5 0-.8-.8-.8-1.4 0-.7.2-2 1-2Zm-5.4 1c.6 0 .8 1.2.7 1.9 0 .5-.3 1.5-.8 1.5-.6 0-.9-.8-.9-1.4 0-.7.2-2 1-2Zm17.4.5c.7 0 .8 1.1.8 1.8 0 .6-.4 1.5-1 1.5-.5 0-.7-.8-.8-1.3 0-.8.3-2 1-2Zm-9.9 1.2c.7 0 .9 1.2.8 1.9 0 .5-.3 1.4-.9 1.4-.5 0-.8-.8-.8-1.3 0-.7.2-2 1-2Zm12.9.6c.6 0 .8 1.2.7 1.9 0 .5-.3 1.4-.9 1.4-.5 0-.8-.8-.8-1.3 0-.7.2-2 1-2Zm-18.5 1c.7 0 .8 1.2.8 1.9 0 .5-.3 1.4-1 1.4-.4 0-.7-.8-.8-1.3 0-.7.3-2 1-2Zm8 1.2c.7 0 .8 1.2.8 1.8 0 .6-.3 1.5-1 1.5-.4 0-.7-.8-.8-1.3 0-.8.3-2 1-2Zm-11 2c.6 0 .8 1.2.7 1.8 0 .6-.3 1.5-.9 1.5-.5 0-.8-.8-.8-1.3 0-.8.2-2 1-2Zm5 0c.7.1.8 1.3.8 2 0 .5-.3 1.4-.9 1.4-.5 0-.8-.8-.8-1.3 0-.7.2-2 1-2Zm8.8.3c.6 0 .8 1.1.7 1.8 0 .6-.3 1.5-.8 1.5-.6 0-.9-.8-.9-1.3 0-.8.2-2 1-2Zm2.7 2c.6 0 .8 1.2.7 1.9 0 .6-.3 1.5-.8 1.5-.6 0-.9-.8-.9-1.3 0-.8.2-2 1-2Zm-9.4.5c.6 0 .8 1.2.7 1.8 0 .6-.3 1.5-.9 1.5-.5 0-.8-.8-.8-1.3 0-.8.2-2 1-2Zm-5.4.8c.7 0 .9 1.2.8 1.9 0 .5-.3 1.4-.9 1.5-.5 0-.8-.9-.8-1.4 0-.7.2-2 1-2Zm7.5 2.2c.7 0 .8 1.2.8 1.9 0 .5-.3 1.4-.9 1.4-.5 0-.8-.8-.8-1.3 0-.7.2-2 1-2Zm-5.5 1.4c.6 0 .8 1.2.8 1.9 0 .5-.4 1.5-1 1.5-.5 0-.8-.8-.8-1.4 0-.7.2-2 1-2Zm8.2 1c.7 0 .9 1.2.8 1.8 0 .6-.3 1.5-.9 1.5-.5 0-.8-.8-.8-1.3 0-.8.2-2 1-2Zm-6 1.9c.6 0 .8 1.2.7 1.8 0 .6-.3 1.5-.9 1.5-.5 0-.8-.8-.8-1.3 0-.7.2-2 1-2Zm-5.4.4c.7 0 .8 1.2.8 1.9 0 .6-.3 1.5-.9 1.5-.5 0-.8-.8-.8-1.3 0-.8.2-2 1-2Zm7.5 2.4c.7 0 .8 1.2.8 1.9 0 .6-.3 1.4-.9 1.5-.5 0-.8-.8-.8-1.4 0-.7.2-2 1-2Zm-5.3 1.2c.6 0 .8 1.2.7 1.9 0 .5-.3 1.4-.9 1.4-.5 0-.8-.8-.8-1.3 0-.7.2-2 1-2Zm1.9 3c.6 0 .8 1.2.7 1.8 0 .6-.3 1.5-.8 1.5-.6 0-.9-.8-.9-1.3 0-.8.2-2 1-2Zm-3.4 3.8c.7 0 .9 1.2.8 1.8 0 .6-.3 1.5-.9 1.5-.5 0-.8-.8-.8-1.3 0-.7.2-2 1-2Z"></path><path stroke="#000" stroke-width=".3" d="M772.6 255.1s.3-3.5-.5-6.8c-.8-3.2-3-8-3-8"></path><path stroke="#000" stroke-width=".3" d="m885.2 148.4.7 3.3a24.5 24.5 0 0 1 .3 4.3l-2.8 103.4a.7.7 0 0 1-.5.3l-.5.1c-.2 0-.4 0-.5.2l-.2.6c0 .3 0 .7.3 1L774 389.8l-2.2 1-3.5-53.3c-.7-12.3-2-24.5-1.9-36.8.2-13.6-2.3-28.2 3.1-40.7 3.4-7.7 11.4-12.6 17.3-18.6 13.3-13.5 27.3-26.1 41-39.1 19-18.1 39.4-37.2 57.3-54Z"></path><path fill="#1A1A1A" stroke="#BCBBBA" stroke-linejoin="round" stroke-width="17.4" d="M897 299H568.5a28.4 28.4 0 0 0-28.4 28.4V505a28.4 28.4 0 0 0 28.4 28.4h328.7a28.4 28.4 0 0 0 28.4-28.4V327.4a28.4 28.4 0 0 0-28.4-28.4Z"></path><path fill="#2FFF00" d="m604.5 355.6-36 15.8v-10.3l24.6-10-.3.6v-1.3l.3.6-24.6-10v-10.3l36 15.9v9Zm40.8 16.4v8.3h-34.4V372h34.4Z"></path><defs><radialGradient id="d" cx="0" cy="0" r="1" gradientTransform="matrix(-7.63163 0 0 -8.57042 530.4 286.2)" gradientUnits="userSpaceOnUse"><stop stop-color="#A8A487"></stop><stop offset=".6" stop-color="#A8A487" stop-opacity=".9"></stop><stop offset="1" stop-color="#A8A487" stop-opacity="0"></stop></radialGradient><radialGradient id="e" cx="0" cy="0" r="1" gradientTransform="matrix(-16.0231 0 0 -16.7325 523.5 290.7)" gradientUnits="userSpaceOnUse"><stop stop-color="#D9D5C1"></stop><stop offset=".5" stop-color="#76735D"></stop><stop offset="1" stop-color="#979379"></stop></radialGradient><radialGradient id="f" cx="0" cy="0" r="1" gradientTransform="matrix(-6.34928 0 0 -7.13034 532.5 311)" gradientUnits="userSpaceOnUse"><stop stop-color="#A8A487"></stop><stop offset=".6" stop-color="#A8A487" stop-opacity=".9"></stop><stop offset="1" stop-color="#A8A487" stop-opacity="0"></stop></radialGradient><radialGradient id="g" cx="0" cy="0" r="1" gradientTransform="matrix(-13.3307 0 0 -13.9212 526.8 314.8)" gradientUnits="userSpaceOnUse"><stop stop-color="#D9D5C1"></stop><stop offset=".5" stop-color="#76735D"></stop><stop offset="1" stop-color="#979379"></stop></radialGradient><radialGradient id="m" cx="0" cy="0" r="1" gradientTransform="matrix(-9.49585 0 0 -9.05729 353.3 237.2)" gradientUnits="userSpaceOnUse"><stop stop-color="#36331A"></stop><stop offset="1" stop-color="#36331A" stop-opacity="0"></stop></radialGradient><radialGradient id="n" cx="0" cy="0" r="1" gradientTransform="matrix(-4.93743 -1.39715 1.77421 -6.26993 351 231.5)" gradientUnits="userSpaceOnUse"><stop stop-color="#E5E2D1"></stop><stop offset="1" stop-color="#C9C7A7"></stop></radialGradient><radialGradient id="o" cx="0" cy="0" r="1" gradientTransform="matrix(-17.7754 0 0 -12.4059 417.4 225.1)" gradientUnits="userSpaceOnUse"><stop stop-color="#DFDDC8"></stop><stop offset="1" stop-color="#A7A478"></stop></radialGradient><radialGradient id="q" cx="0" cy="0" r="1" gradientTransform="matrix(-24.4809 0 0 -12.9877 413 247.6)" gradientUnits="userSpaceOnUse"><stop stop-color="#DFDDC8"></stop><stop offset="1" stop-color="#A29F77"></stop></radialGradient><radialGradient id="r" cx="0" cy="0" r="1" gradientTransform="matrix(.65315 5.64498 -13.64427 1.5787 410.1 228.7)" gradientUnits="userSpaceOnUse"><stop stop-color="#625E38"></stop><stop offset="1" stop-color="#C2BDA3"></stop></radialGradient><linearGradient id="a" x1="772" x2="768" y1="387.7" y2="423" gradientUnits="userSpaceOnUse"><stop stop-color="#84754A"></stop><stop offset=".2" stop-color="#A99D77"></stop><stop offset=".3" stop-color="#CFC8B1"></stop><stop offset="1" stop-color="#D3CDB7"></stop></linearGradient><linearGradient id="b" x1="703.2" x2="699.4" y1="230.9" y2="272.7" gradientUnits="userSpaceOnUse"><stop stop-color="#E5E3CE"></stop><stop offset=".5" stop-color="#EAE8D7"></stop><stop offset="1" stop-color="#DEDDC8"></stop></linearGradient><linearGradient id="c" x1="703.2" x2="699.4" y1="230.9" y2="272.7" gradientUnits="userSpaceOnUse"><stop stop-color="#E5E3CE"></stop><stop offset=".5" stop-color="#EAE8D7"></stop><stop offset="1" stop-color="#DEDDC8"></stop></linearGradient><linearGradient id="h" x1="490.2" x2="344" y1="309.7" y2="291.2" gradientUnits="userSpaceOnUse"><stop stop-color="#565032"></stop><stop offset="1" stop-color="#9D9868"></stop></linearGradient><linearGradient id="i" x1="486.3" x2="352.2" y1="277.1" y2="262.1" gradientUnits="userSpaceOnUse"><stop stop-color="#D4D2BF"></stop><stop offset="1" stop-color="#E3E2D1"></stop></linearGradient><linearGradient id="j" x1="502" x2="346" y1="356.8" y2="329.3" gradientUnits="userSpaceOnUse"><stop stop-color="#565032"></stop><stop offset="1" stop-color="#9D9868"></stop></linearGradient><linearGradient id="k" x1="491.2" x2="490.7" y1="313.7" y2="318.9" gradientUnits="userSpaceOnUse"><stop stop-color="#BBB79A"></stop><stop offset="1" stop-color="#E3DFCD"></stop></linearGradient><linearGradient id="p" x1="359.1" x2="368.6" y1="235.1" y2="229.4" gradientUnits="userSpaceOnUse"><stop stop-color="#665D31"></stop><stop offset="1" stop-color="#B8B490"></stop></linearGradient><linearGradient id="s" x1="359.1" x2="368.6" y1="235.1" y2="229.4" gradientUnits="userSpaceOnUse"><stop stop-color="#665D31"></stop><stop offset="1" stop-color="#B8B490"></stop></linearGradient><filter id="l" width="10" height="14.4" x="347.7" y="224" color-interpolation-filters="sRGB" filterUnits="userSpaceOnUse"><feFlood flood-opacity="0" result="BackgroundImageFix"></feFlood><feBlend in="SourceGraphic" in2="BackgroundImageFix" result="shape"></feBlend><feGaussianBlur result="effect1_foregroundBlur_1107_1572" stdDeviation=".2"></feGaussianBlur></filter></defs></svg> 